<svg xmlns="http://www.w3.org/2000/svg" width="100" height="22"><g fill-rule="evenodd"><path d="M61.9 16.9q.3.2.6.4v.2q-.3 1.1-1.1 2c-1.1 1.2-2.6 1.9-4.2 2.1-1.3.2-2.6.1-3.8-.2-1.4-.3-2.6-.9-3.5-1.9-.8-.8-1.3-1.6-1.5-2.7-.3-1.8.5-3.4 2.1-4.2q.7-.4 1.6-.6 0 0 .1 0c-.2-.3-.5-.5-.8-.6q-.5-.3-1.1-.3c-.1 0-.2 0-.1-.2 0-.6.4-1 .8-1.4q.8-.6 1.8-.6.5 0 1 .1c.6.2 1.1.5 1.4 1 .1-.1.2-.1.2-.2.3-.5.7-.8 1.3-.8.6-.1 1.2 0 1.8.4.4.4.6.9.7 1.4.1.4.1.9.1 1.3q0 .4-.4.4 0 0-.1 0 0 0 0 0 0 0-.1 0 0 0 0 0-2.3 0-4.6 0-.3 0-.7.1.3.6.6 1.1.3.8.8 1.5.6.5 1.4.6c.6.1 1.1 0 1.6-.4s.8-.9.8-1.5q0-.2 0-.3c0-.2.1-.3.3-.3q.2 0 .3.3 0 .3 0 .6c0 .7-.2 1.4-.7 1.9-.4.6-1 .8-1.7.9s-1.5 0-2.2-.4c-.5-.3-.7-.7-.9-1.2-.3-.6-.4-1.1-.6-1.7q0-.1-.1-.3 0-.1-.1-.2 0-.1-.1-.2 0-.1-.1-.2c0-.1 0-.2-.1-.2-.7.2-1.3.3-1.8.7q-1.4 1-1.3 2.7c.1 1.4.9 2.3 1.9 3.1s2.2 1.2 3.5 1.3c1.5.1 3 0 4.4-.6 1-.4 1.8-1.1 2.3-2q.2-.4.3-.8 0-.1 0-.1zm-6.8-5q.1 0 .1 0 1.5 0 2.9 0 0 0 .1 0 0 0 0 0 0 0 .1 0 0 0 0 0 .2-.1.2-.3.1-.5-.1-1c-.2-.5-.5-.9-1.1-1.1-.6-.1-.9 0-1.2.5-.4.6-.7 1.2-1 1.9zm-2.3-2.4q-.1 0-.2 0 0 0 0 0 0 0 0 0-.1 0-.1 0 0 0 0 0c-.6.1-1.1.4-1.4 1 0 .1-.1.1 0 .2q1.1.2 1.8 1.1c.1.1.1.1.2.1h1q.1 0 .2-.1c.1-.2.2-.5.4-.7.2-.3.1-.6-.1-.8q0-.1 0-.1-.1 0-.1 0 0 0 0-.1 0 0-.1 0c-.4-.4-1-.6-1.6-.6zm-5.2 6q0 2.1 0 4.2c0 .1 0 .3-.2.3-.2.1-.4.1-.6 0 0-.1-.1-.2-.1-.3q0-1.1 0-2.2 0-2.8 0-5.5c0-.5 0-.9-.2-1.2-.5-1-1.6-1.4-2.6-.9-.7.4-1.3 1-1.7 1.6-.1.1-.1.2-.1.2.1.1.2.1.2.1q.4 0 .8-.1c1.2 0 2.2.7 2.4 1.6q.2 1.2-.6 2.1c-.6.7-1.4 1-2.3 1.1q-2 .4-3.9-.1c-.5-.2-1-.3-1.4-.6-.6-.5-.7-1.2-.3-1.9q.2-.4.6-.8l1.9-1.9q.6-.6 1.1-1.2c.2-.1.2-.1 0-.2-.1-.1-.3-.1-.5-.1q0 0 0 .1c-.3.6-.8 1.1-1.3 1.5-.5.3-1 .6-1.6.7q0 0-.1 0 0 0-.1 0 0 0 0 0-.1 0-.1 0c-.6 0-.8-.4-.6-1 .1-.4.4-.7.7-1q.5-.5 1.1-.8.4-.3.9-.3.7.1 1.5.1.4-.1.8.1.2.2.4.3.4.2.1.5l-1 1-1.6 1.6-.9.9q0 0 0 .1 0 0-.1 0 0 .1 0 .1 0 0 0 .1c-.3.4-.2.8.2 1.1.5.4 1.1.5 1.7.6.8.1 1.7.1 2.6-.1.5-.1 1-.3 1.4-.6.4-.4.6-1 .4-1.6-.2-.5-.7-.8-1.3-.9q-.5 0-1.1.2 0 0-.1 0-.1 0-.2.1-.1 0-.2 0 0 0-.1 0c-.4-.1-.6-.3-.4-.6.7-1 1.4-1.9 2.4-2.5a2.89 2.89 0 0 1 3.1 0c.6.3.9.9.9 1.6.1.6 0 1.1 0 1.7zm-9.8-4.4q.1 0 .3 0 .7-.4 1.2-1.1c.1-.2.1-.2-.1-.4-.2-.1-.3 0-.4 0q-.1.1-.2.1-.1.1-.1.1-.1.1-.2.1-.1.1-.1.2-.4.2-.6.6c-.1.2 0 .4.2.4z" fill="#f8971c"/><path d="M68.3 10.1q-.3 0-.6 0-.1 0-.1-.1c-.2-.9-.8-1.4-1.6-1.5a3.75 3.75 0 0 0-2.1 0c-.3.1-.7.2-.9.5q-.5.5-.3 1.2c.1.3.4.5.7.6.4.2.9.3 1.4.4l2.4.4q.6.2 1.2.5c.5.4.9.9.9 1.5.1.9-.1 1.7-.8 2.3q-.6.6-1.5.8c-1.5.3-2.9.3-4.3-.3q-1.6-.7-1.8-2.4c0-.4 0-.4.4-.4q.4 0 .8 0c.2 0 .3 0 .3.2q0 .7.5 1.1.5.5 1.2.6c.8.2 1.7.3 2.5 0q.6-.1 1-.5c.5-.5.5-1.6-.4-2-.5-.2-1-.2-1.5-.3l-2.6-.5c-.5-.1-1-.4-1.4-.8-.4-.5-.5-1.2-.5-1.8.2-1.2.9-1.9 2-2.2 1.4-.4 2.8-.4 4.1.2 1.1.4 1.6 1.2 1.7 2.4.1 0 0 .1-.1.1zm20.1.7c1.3-1.6 4.2-1.4 5.4 0 1.3 1.3 1.3 3.8 0 5.1-1.4 1.3-4.3 1.4-5.4-.1v.2 3.1c0 .2-.1.2-.2.2q-.5 0-1 0c-.1 0-.2 0-.2-.2v-2.6V10c0-.1.1-.2.2-.2q.5.1 1 0c.1 0 .2.1.2.2q0 .4 0 .8zm2.4 5q.1 0 .2 0 .1 0 .2 0c.9-.1 1.6-.5 1.9-1.3q.4-.7.3-1.5c-.1-.9-.6-1.7-1.4-2-.6-.2-1.2-.3-1.8-.2q-1 .2-1.5 1-.4.7-.4 1.4c0 .6.1 1.1.4 1.6.6.7 1.3 1 2.1 1z" fill="#9f1e29"/><path d="M32.1 12.2l.5.6q.3.2.4.6c.3.7-.2 1-.7.9-.6 0-1-.3-1.4-.6q-.4-.4-.7-.8c-.4-.6-.2-1.1.5-1.3h.8q.7 0 1.4 0 .3-.1.5.1c.5.5 1 .9 1.5 1.5.2.3.4.6.5 1.1.1.6-.1 1.1-.5 1.5-.5.4-1.1.6-1.7.7-1 .2-2 .2-2.9 0-1.6-.4-2.8-1.7-2.9-3.4 0-1 .2-2 .9-2.8.6-.6 1.4-1 2.3-1.2a5.44 5.44 0 0 1 3.1.3q1.5.6 2.3 2 .2.4 0 .5c-.2.1-.5 0-.6-.2q-.2-.2-.4-.5-1.1-1.6-3.2-1.6c-.7 0-1.5.1-2.2.5q-1.1.8-1.1 2.1c-.1.6.1 1.2.4 1.8q.6 1 1.7 1.3 1.3.3 2.5 0 .3-.1.6-.4c.6-.5.6-1.1.2-1.7-.3-.3-.7-.6-1-.9-.1-.1-.3-.1-.4-.1q-.1 0-.1 0-.1 0-.1 0-.1 0-.1 0-.1 0-.1 0zm-.2 1.4c.3 0 .4-.2.3-.4q0 0 0 0 0 0-.1 0 0-.1 0-.1 0 0 0 0-.3-.4-.7-.7-.1-.1-.3-.1c-.1-.1-.2 0-.3.1s0 .1 0 .2q.3.6.9.9.1.1.2.1z" fill="#f8971c"/></g><path d="M76.7 12.1q-.3 0-.6 0-.1 0-.1-.1c-.2-.7-.7-1.1-1.4-1.2q-.8-.2-1.6 0-1 .4-1.4 1.4-.3 1 0 2.1c.3.9 1 1.4 2 1.5q.5 0 1-.1c.8-.1 1.2-.7 1.4-1.3 0-.2.1-.3.3-.2q.5 0 1 0c.1 0 .2-.1.1.1-.2.8-.6 1.6-1.4 2.1-.5.3-1 .4-1.6.5-.7 0-1.4 0-2-.2-1.2-.4-1.9-1.2-2.2-2.4-.3-.9-.2-1.8.2-2.6q.6-1.6 2.2-2c1-.2 2-.2 3 .2s1.6 1.1 1.8 2.1c0 .1 0 .1-.1.1q-.3 0-.6 0zm20 1.1V11c0-.1-.1-.1-.2-.1q-.5 0-1.1 0-.2 0-.2-.2.1-.4 0-.7c0-.1.1-.2.2-.2h1.1c.1 0 .2 0 .2-.1V7.9c0-.1 0-.2.1-.2q.6.1 1.1 0c.1 0 .1.1.1.2v1.8c0 .1.1.1.2.1h1.6c.2 0 .2.1.2.2q0 .4 0 .7 0 .2-.2.2-.8 0-1.6 0c-.2 0-.2 0-.2.1v4.1q0 .5.5.6c.4.1.9.1 1.3 0 .2 0 .2 0 .2.2v.8q0 .1-.1.1c-.6.1-1.3.2-1.9.1-.9-.1-1.3-.7-1.3-1.6zm-16.6-2.1q.3-.6.8-1c.6-.4 1.4-.5 2.2-.4q.1 0 .1.1V11c0 .2-.1.1-.1.1q-.8-.2-1.5 0c-.9.2-1.5.9-1.5 1.8q-.1.2-.1.4 0 1.6 0 3.3c0 .1 0 .1-.1.1q-.5 0-1.1 0-.1 0-.1-.1 0-3.3 0-6.6c0-.1 0-.1.1-.1q.6 0 1.1 0 .2 0 .1.1 0 .5 0 .9s0 .1.1.2zm5.3 2.2v3.2c0 .2 0 .2-.2.2q-.5 0-1 0c-.1 0-.1 0-.1-.1q0-3.3 0-6.6c0-.1 0-.1.1-.1h1.1c.1 0 .1 0 .1.1zm0-5.3v.6c0 .1 0 .1-.1.1q-.6 0-1.1 0-.1 0-.1-.1V7.4q0-.1.1-.1h1.1c.1 0 .1 0 .1.1q0 .3 0 .6z" fill="#9f1e29"/><g fill-rule="evenodd"><path d="M10.4 11.8c-.4.4-.5.9-.6 1.4l-.1-.3c-.1-.2-.1-.3-.3-.4-.1 0 0 0 0 0 .4-.5.7-.9 1.3-1.2.3-.1.6-.2.8-.4q.1-.1.1-.1.1 0 .1-.1 0 0 .1 0 0-.1 0-.1.5-.7.8-1.5c.1-.2.1-.4 0-.6-.1-.4-.4-.8-.6-1.2q-.1-.1-.2-.2 0-.1 0-.1 0 0 .1 0l.6.1q.8.2 1.6.3.1 0 .1.1c.1.3.2.5.4.8.2.2.3.4.4.7q0 .3-.1.6-.1.1-.2.3c-.1.2-.2.5-.1.8q0 .5-.1 1.1c-.2.5-.2 1.1-.3 1.7v.8c-.1.1 0 .1.1.1q.5-.1 1.1-.1.9 0 1.8.2c.5.2 1 .3 1.6.4q0 0 .1 0 0 0 .1 0 0 0 .1.1.1 0 .1 0h1.6q0 0 .1 0c.3 0 .4-.1.5-.4q0-.3.1-.7 0-.9-.3-1.8c-.2-.4-.1-.8 0-1.2.3-.9.2-1.9-.1-2.9v-.1l.7.4q.7.4 1.3.8.7.5 1 1.3l1 3.2a6.28 6.28 0 0 1 .3 1.9c0 .5.2 1 .3 1.4l.1.4c-.4-.2-.5-.4-.7-.6q-.1-.2-.2-.3-.3-.6-.2-1.3c0-.4.1-.8.1-1.2q0-.2-.1-.4-.2-.8-.4-1.6 0 0 0-.1v.3q0 .7-.2 1.4l-.6 2-.5 1.4c-.1.4-.2.7-.2 1l-.1 1.9q0 .5.1.9c0 .2.1.3.1.5q.1.1.1.3 0 .1-.2.2 0 0 0 0 0 0 0 0 0 0 0 0-.1 0-.1 0-1.1 0-2.2 0-.1 0-.3 0-.1 0-.1-.2.1-.2.3-.4 0 0 .1-.1.3-.2.3-.5.1-1.1.1-2.1c.1-.2.1-.4 0-.7l-.3-1q0-.1-.1-.1-.4-.1-.7-.3-.2-.1-.3-.1-1.2-.1-2.5-.3-1.2-.2-2.3-.7-.5-.2-1.1-.2c-.1 0-.3 0-.4.1h-.1q0-.1 0-.2 0-.1.2-.1c.2 0 .4-.1.7-.1q-.1-.1-.2-.1-.2-.1-.4-.1h-.1q.1-.5.2-.9s.1-.1 0-.2l-.1.4c-.4.8-.7 1.6-1 2.4-.1.3-.3.5-.5.6-.9.7-1.5 1.5-2.1 2.4q-.3.5-.5 1-.1.3 0 .5.2.3.1.6 0 0 0 0 0 0 0 0 0 0 0 0 0 0 0 0c-.1.3-.1.3-.4.3-.4 0-.9-.1-1.4-.3q0 0-.1-.1-.1 0-.2-.1 0 0-.1-.1-.1 0-.1-.1-.1-.1-.2-.2 0-.1.1-.2.2-.2.3-.3.3-.2.4-.6c0-.5.2-.9.5-1.3.3-.6.7-1.1.9-1.6.3-.6.6-1.3.6-2 .1-.9.3-1.7.6-2.6q.1-.1.2-.3zm-2.8-2c-.1.2-.1.5-.1.7.1.2.1.5.1.8s-.2.6-.5.8q-.5.4-1.1.5c-.4.1-.6.3-.7.6-.1.2-.2.5-.3.7q-.1.2-.3.3 0 .1-.1 0 0-.2 0-.3 0-.1-.1-.2 0 0 0 .1-.2.4-.2.9c0 .9.1 1.8.3 2.7q.1.7.2 1.4.1.4.3.4c.2 0 .3 0 .3-.2-.1-.1 0-.1.1-.1 0 .1.1.1.1 0 .1 0 .2 0 .2.1 0 .3-.1.6-.3.8s-.6.1-.8 0c-.3-.2-.5-.5-.6-.8-.2-.5-.2-1-.4-1.5q-.1-.3-.1-.6-.1-.3-.2-.6 0-.3-.1-.6 0-.3-.1-.6-.1-.7-.1-1.4 0 0-.1.1-.8.3-1.6.3Q.8 14 .2 14q-.1 0-.3-.1l1.7-.2q.8-.1 1.5-.6 0 0 .1-.1c-.9.3-1.8.2-2.8.2h.1l.1-.1c.7-.1 1.3-.2 1.9-.4q.3-.1.7-.3 0 0 .1-.1.2-1.4.9-2.7.1-.1 0-.2 0-.2.1-.5 0-.3.3-.4c.2-.2.3-.4.4-.6q.2-.4.4-.8c.2-.4.5-.5 1-.6.3 0 .5.1.8.1q.3 0 .5 0 .1 0 .1 0c.5-.3 1-.4 1.5-.5q.6 0 1.2 0 .2 0 .3.2c.1.3.3.6.5.9q.6.7.8 1.6 0 .1 0 .1 0 0 0 .1 0 0 0 .1 0 0 0 0c-.2.6-.5 1.1-.9 1.5-.2.2-.4.3-.6.4q-.6.2-1 .6c-.3.3-.6.6-.8.9s-.5.3-.6 0c-.2-.5-.4-1-.5-1.5q-.1-.5-.1-1.1 0 0 0-.1zM5 12.4q0-.2-.1-.2-.1-.1-.2-.2c-.1 0-.1-.1 0-.1q.2-.2.4-.4.2-.1.4 0 .1 0 .2 0-.1-.2-.4-.1-.4 0-.7.3l-.3.3q.4.1.7.4zm-.2-3.2q0 0 0 0c.1-.2.3-.3.5-.2q.1 0 .1 0 .1 0 .1-.1h-.1q-.1-.1-.3-.1c-.2-.1-.4.1-.3.4zm.5-.1q-.1 0-.1 0-.2.1-.2.2c.1.1.1 0 .2 0q0 0 .1 0l.1-.1c0-.1-.1-.1-.1-.1z" fill="#f8971c"/><path d="M15.1 9.8q.1.1.2.1c.1.2.3.2.5 0l.3-.6q.1 0 .1 0l-.4.3c-.2.1-.2.1-.3 0q-.1 0-.2-.1 0-.1 0-.2.1.1.2.2.1.1.2 0 .2-.1.3-.3.1-.1 0-.1c-.1 0-.1-.1-.2 0q-.1.1-.2.2 0 0-.1 0v-.1q.1-.1.2-.2c.1-.1 0-.1 0-.2h-.1q-.1.1-.2.2-.1-.1 0-.2.1 0 .1-.1s-.1 0-.1.1h-.1c0-.1-.1-.1 0-.2q0 0 .2-.2-.2.1-.3.1c0 .1 0 0-.1 0 0-.1 0-.1.1-.1q0 0 0 0 0 0 0 0 0 0 0 0 0 0 .1 0c0-.1.1-.1 0-.2q0-.1-.1 0-.1 0-.2 0h-.1c0-.1.1-.1.1-.1q0 0 0 0 0 0 .1 0 0 0 0-.1 0 0 0 0c.1 0 .1 0 .1-.1q0-.1-.1-.1-.1.1-.3.1 0 0-.1 0c0-.1.1-.1.1-.1.1 0 .2-.1.3-.1h-.4l-.1-.1q0 0 .1 0c.5 0 1-.1 1.6-.2.5-.1 1.1-.1 1.7 0h1c.3 0 .6.1.8.1q.4.2.8.4c-.1 0-.1.1-.1.1-.1.1 0 .1.1.1q0 .1.1.1.1 0 .1.1 0 .1-.1 0-.1 0-.2-.1c-.1 0-.1.1-.2.1q0 .1.1.1a.76.76 0 0 0 .4.2c.1 0 .1.1.1.1 0 .1-.1.1-.1 0l-.4-.1q-.1-.1-.1-.1 0 .1.1.2c.2.1.3.2.5.3l.1.1q0 .8-.2 1.6-.1.3-.1.6c0 .3.1.5.2.8q.3 1 0 2c0 .2-.1.2-.2.2q-.1 0-.2 0 0 0-.1 0-.1 0-.1 0-.1 0-.2 0-.3 0-.6 0c-.6.1-1.2-.1-1.8-.2-.5-.2-1-.3-1.6-.4q-.1 0-.3 0-.2 0-.4 0-.2 0-.4 0-.1.1-.3.1-.1 0-.1-.1l.1-1.5q.1-.4.2-.7.1-.6 0-1.2 0-.3.2-.5zm5-1.1l.4.4q.1.2 0 .3-.2.2-.3.3-.2.1-.3 0-.2-.1-.3-.3 0 0-.1-.1c.1.3.2.5.4.7.1.1.3.2.4 0q.3-.2.5-.4c.1-.2.1-.3 0-.4q-.3-.3-.7-.5zm-2.7 1.1l-.2.7c-.1.2 0 .4.3.4q.1 0 .1 0 .1 0 .2 0 .1 0 .2 0 .1 0 .2 0c.1 0 .3-.2.2-.4q0-.3-.1-.6v-.1q0 0-.1 0 0 0 0 0 0 0 0 0 0 .1 0 .1v.4c0 .2 0 .2-.2.2-.1.1-.3 0-.4 0q-.2 0-.2-.1zm1.1-.1l.1.7c0 .2.2.3.4.3q.3-.2.6-.3c.2-.1.2-.2.1-.4q-.2-.3-.4-.6 0 0 0 0v.1l.2.4q0 .2-.1.2-.2.1-.5.2-.1.1-.2-.1 0-.1-.1-.3s-.1-.1-.1-.2zm-2.1-.3zm-.1-.1l-.4.6c-.1.2-.1.4.1.5q.3.1.6.2c.2.1.4 0 .4-.2q.1-.3.2-.6v-.1q-.1 0-.1 0l-.2.5c0 .1-.1.1-.2.1q-.2-.1-.4-.2c-.2-.1-.2-.1-.1-.3l.2-.4zm4-.2q0-.1 0-.1-.2-.1-.3-.3c-.1 0-.1 0-.1.1q-.1 0-.1.1.1.1.2.2.1.1 0 .1 0 0 0 0-.2-.1-.3-.2c0-.1-.1 0-.1 0s-.1.1 0 .1l.3.3q0 .1.1.1c.1 0 .3-.3.3-.4q0 0 0 0zm-3.7 1q0 0 0 0 0 0 0 0zm.2-.1l.1-.4v-.1c-.1 0-.2-.1-.2 0q-.1.2-.1.3 0 .1-.1 0-.1 0 0-.1 0-.1.1-.2c0-.1 0-.1-.1-.2q-.1 0-.1.1l-.2.3q0 .1 0 .2c.1.1.3.1.4.2q.1 0 .2-.1zm2.5-.2c0-.1-.1-.2-.2-.4q0-.1-.1 0c-.1 0-.1 0-.1.1q.1.1.1.2v.2c-.1 0-.1-.1-.1-.1q-.1-.1-.1-.2-.1-.1-.1-.1c-.1 0-.2 0-.1.1q0 .2.1.4.1.1.2.1.2 0 .3-.1.1-.1.1-.2zm-1.6.1q0-.1 0-.2c0-.1-.1-.1-.1-.1-.1 0-.1 0-.1.1q-.1.2-.1.4 0 .2.2.2 0 0 .1 0 0 0 0 0 .1 0 .1 0 0 0 .1 0 .2 0 .2-.2-.1-.2-.1-.3 0-.2-.1-.2s-.1.1-.1.2q0 .1 0 .2 0 .1-.1.1 0 0 0-.1 0-.1 0-.1zm2 2c.2 0 .3-.2.3-.3 0-.2-.1-.3-.3-.3-.1 0-.2.1-.2.3q0 0 0 .1 0 .1 0 .1.1 0 .1 0 .1.1.1.1zm-2.3-.6c.1-.2-.1-.3-.2-.3-.2-.1-.3.1-.3.2 0 .2.1.3.2.3.2 0 .3-.1.3-.2zm.9 1.4q0 .1.1.2.1.1.2.1.1 0 .2-.1.1-.1.1-.2 0-.1 0-.1 0-.1-.1-.1 0 0-.1-.1 0 0-.1 0c-.1 0-.3.1-.3.3zm-2.6.1c.2 0 .3-.2.3-.3q0-.1 0-.1 0-.1-.1-.1 0-.1-.1-.1 0 0-.1 0 0 0-.1 0 0 0-.1.1 0 0 0 .1-.1 0-.1.1c0 .1.2.3.3.3zm3.8-4.3q0 0 0-.1 0 0 0 0 0-.1-.1-.1 0 0 0 0l-.5-.5h-.2c0 .1 0 .1.1.2q.2.2.3.4.1.1.3.2s.1 0 .1-.1zm-3.4 0q0 0 .1 0 0 0 0 0 0 0 .1 0 0-.1 0-.1.2-.2.5-.5.1 0 0-.1-.1-.1-.1 0-.3.2-.5.4-.2.1-.2.2 0 .1.1.1zm1.8 0q0-.1 0-.2l-.1-.1c-.1 0-.1.1-.1.1q-.1.3-.1.6c0 .2 0 .3.1.3q0 .1.1 0s.1-.1.1-.2q0-.2 0-.5zm-1.5.3q.2 0 .3-.1l.3-.6s.1-.1 0-.1c-.1-.1-.1 0-.1 0l-.5.5q-.1.1 0 .3 0 0 0 0zm-.7-1.1q0 0 0 0 0 0 0 0 0 0 0 0 .1 0 .1 0l.7-.3q.1 0 0-.1 0 0-.1 0-.3.1-.7.2c-.1 0-.1.1-.2.1q0 .1.1.1 0 0 .1 0zm1 1.1l.1.2q0 0 0 0c.1 0 .2 0 .2-.1l.3-.6c0-.1 0-.2-.1-.2s-.1 0-.1.1q-.2.3-.3.5 0 .1-.1.1zm2.4-.1q0-.1 0-.1c-.2-.2-.3-.4-.4-.6-.1 0-.1-.1-.2 0v.1l.3.6c.1.1.2.1.3.2q0 0 0-.1v-.1zm-3.2-.6q.1 0 .1 0l.6-.4q.1 0 0-.1 0-.1-.1 0-.3.1-.5.2-.1 0-.2.1c0 .1-.1.1-.1.2h.2q0 0 0 0 0 0 0 0 0 0 0 0 0 0 0 0zm2.8 1q0 0 0 0 0 0 0 0zm0-.3q-.1-.3-.3-.6s0-.1-.1-.1c-.1.1-.1.1 0 .2q0 .2.1.5.1.2.3.3c0-.1.1-.2 0-.3zm1-.6h.1c0-.1 0-.2-.1-.2q-.3-.2-.7-.4 0-.1-.1 0c0 .1 0 .1.1.2q.2.2.4.3.1.1.3.1zm.1-.4h.2q0 0 0 0c0-.1-.1-.2-.2-.3q-.3-.1-.6-.2c-.1 0-.1 0-.2.1 0 .1.1.1.1.1l.6.3q.1 0 .1 0zM17.2 9s0 .2.1.2c0 0 .1-.1.1-.2q0 0 .1 0c0-.2 0-.5.1-.7q0-.1-.1-.1c-.1 0-.1 0-.1.1q-.1.2-.1.4c-.1.1-.1.2-.1.3zm.8-.7q0 .3 0 .6 0 .2.2.3 0 0 0 0c.1-.1.1-.2.1-.3-.1-.2-.1-.4-.2-.6 0-.1 0-.1-.1-.1q-.1 0 0 .1zm1.7 4.6c0 .1.1.2.2.2s.2-.1.2-.2q0 0 0-.1 0 0-.1-.1 0 0 0 0-.1 0-.1 0c-.1 0-.2.1-.2.2zm-1.2-1.7c-.1 0-.2.1-.2.2q0 .1 0 .1 0 0 0 .1.1 0 .1 0 0 0 .1 0c.1 0 .2 0 .2-.1 0-.2-.1-.3-.2-.3zm-1.4 1.4q.1 0 .1 0 .1 0 .1 0 0 0 0-.1.1 0 .1-.1 0 0-.1 0 0-.1 0-.1 0 0-.1-.1 0 0-.1 0c-.1 0-.2.1-.2.2s.1.2.2.2zm-1.4-1.2c.1 0 .2-.1.2-.2s-.1-.2-.2-.2-.2 0-.2.2c0 .1.1.2.2.2z" fill="#9f1e29"/></g><path d="M14.2 15.5q.1 0 .2 0 .1 0 .1.1.1 0 .2 0 .1 0 .2 0 .1 0 .1.1l-.1 1.5c-.1.8 0 1.5.2 2.2q.1.3.2.7c.1.2 0 .3.1.5q0 .3.2.4.3.3.4.7.1.3-.2.2l-2 .1q-.1 0-.1-.1 0-.2.1-.4 0-.2.2-.3.1 0 .1-.1-.1-.3-.3-.4-.2-.2-.2-.5c0-.3-.1-.5-.1-.8q-.1-.1-.1-.3c0-.4-.3-.7-.5-1.1q-.1-.3-.2-.6v-.2q.3-.2.4-.6.2-.4.3-.8 0-.1.1-.2c.2-.1.4-.1.7-.1zm10-.5c.2.4.3.8.4 1.2l.3.8c.2.6.5 1.2.8 1.7q.3.6.8 1.2c.2.3.3.8.1 1.2q-.1.2-.3.4-.4.4-.9.5h-.6q-.1 0-.1-.1-.2-.2-.1-.5c.2-.6.1-.7-.2-1.3l-.6-1.5-.3-.8q-.1-.4 0-.8.2-.6.4-1.2l.3-.8z" fill="#f8971c"/><path fill-rule="evenodd" d="M15.3 7.4c.1-.1.1-.2.1-.3.1-.2.1-.5 0-.7q0-.1 0-.1c.2-.1.1-.2.1-.4q0-.4 0-.9v-.6q-.1 0-.1-.1-.1 0-.2-.1c-.1 0-.2 0-.2.1-.1 0-.1 0-.1-.1q0 0 0 0V4h.2q.5 0 .8-.3.1-.1.2-.3.1-.1.2-.1l1.2-.1h.7q.1 0 .1 0a.78.78 0 0 0 .4.4q.3.3.8.3s.1-.1.1 0q0 .1 0 .2 0 0 0 0-.1 0-.1 0c0-.1-.1-.1-.1-.1q0 .1-.1.1c-.2.2-.2.2-.2.5q0 .4 0 .9l.1.4q0 .1.1.2v.1c-.1.2-.1.4 0 .7 0 .1 0 .1-.1.1-.4.1-.7 0-1.1 0q-.2-.1-.4 0-.2 0-.3 0c-.4-.1-.7.1-1 .1q-.5.2-1 .3-.1 0-.1 0zm3.6-1.1l-.1-1.7h-.1-.7l-2.1.1q-.1 0-.1.1v1.1l.1.5c0 .1 0 .2.1.1q.3 0 .6 0 .4 0 .9-.1h.7q.3 0 .6 0 .1 0 .1-.1zm-2.2-4.6q.2-.1.3-.3h.1c-.1-.1-.1-.1-.1-.2q0 0 0 0 0 0 .1 0 0-.1 0-.1 0 0 0 0-.1-.3 0-.7 0 0 0-.1c-.1-.1 0-.2 0-.3.1.1.1.2.1.3q-.1.1 0 .2c0 .2 0 .4.1.6q0 .1.1.2c-.1 0-.1.1-.1.2q.1.1.2.1.1.1.1.1-.1.1-.2.1-.1 0 0 .1c0 .2.2.3.5.4q0 0 .1 0 .1 0 .1 0 .1 0 .1 0 .1 0 .2 0s.1 0 .1.1q0 .1 0 .2h-.1s0-.1-.1-.1c0 .1-.1.1-.1.2q0 .1 0 .2 0 .1-.1.1h-.8-.9q-.2.1-.2-.1c0-.1 0-.2-.1-.2q0-.1-.1 0-.1 0-.1-.1 0-.2.2-.2c.2 0 .4 0 .6-.1q.2-.2.3-.5zm.6 3c.1.2 0 .3.1.4q0 0 0 0 0 .1 0 .1c.1.1 0 .2.1.2q0 .1 0 .1c.3 0 .4.3.4.6q0 0-.1 0-.4 0-.9 0 0 .1 0 0c0-.3 0-.5.3-.6.1 0 0-.1.1-.1 0-.1.1-.2 0-.3q0 0 0 0 0 0 0 0 0 0 0 0 0 0 0 0c.1-.1 0-.2 0-.4zm-.6 1.7c-.1 0-.1 0-.1-.1q0-.1.1-.1h1.1q.1 0 .3 0c.1 0 .1 0 .1.1h-.1l-.9.1q-.2 0-.5 0z" fill="#9f1e29"/></svg>