<svg xmlns="http://www.w3.org/2000/svg" xmlns:xlink="http://www.w3.org/1999/xlink" width="4000" height="4000"><style><![CDATA[.B{clip-path:url(#A)}.C{fill:#000072}.D{fill:#b10038}.E{fill:#b16995}.F{fill:#ffc8a5}.G{fill:#ff001f}.H{fill:#fd97a3}.I{fill:#a7a5bf}.J{fill:#ff8500}.K{fill:#cc6917}.L{fill:#fdcc97}]]></style><defs><clipPath id="A"><path d="M0 4000V0h4000v4000H0z" clip-rule="nonzero"/></clipPath><path id="B" d="M1441.98 1280.25c65.3-25.38 472.44-175.63 927.88-163.65 16.3 16.77 68.51 73.87 110.13 157.16 65.01 130.09 75.3 260.17 30.6 386.76-17.69 13-92.71 64.5-233.04 114.43-147.95 52.64-400.52 114.14-765.78 109.61-12.59-16.73-45.73-65.77-70.37-146.8-28.11-92.44-50.51-246.39.58-457.51m876.1-203.33c-481.15 0-895.79 169.11-900.09 170.89-5.71 2.36-9.96 7.29-11.46 13.28-56.69 226.18-32.2 391.61-1.67 490.56 33.51 108.62 80.79 162.94 82.78 165.2a19.5 19.5 0 0 0 14.32 6.58c377.75 5.79 638.71-58.07 791.24-112.65 166.72-59.67 242.9-120.51 246.07-123.07a19.66 19.66 0 0 0 6.04-8.45c50.16-137.21 39.42-283.88-31.04-424.16-52.89-105.3-119.89-169.28-122.71-171.95a19.53 19.53 0 0 0-12.81-5.32c-20.31-.62-40.57-.91-60.67-.91"/></defs><g class="B" transform="matrix(1 0 0 -1 0 4000)"><path d="M4000 0H0v4000h4000V0" fill="#fff"/><path d="M3355.49 1877.13c0-763.53-618.97-1382.5-1382.5-1382.5-763.54 0-1382.503 618.97-1382.503 1382.5S1209.45 3259.629 1972.99 3259.629c763.53 0 1382.5-618.969 1382.5-1382.499" fill="#0bcaff"/><path d="M3338.45 2094.34c-8.02-3.99-15.77-8.43-23.18-13.36-46.94-31.08-80.83-80.24-92.01-137.49-3.51.3-7.08.47-10.71.47-55.2 0-102.19-34.88-120.16-83.87-13.17 6.38-28.1 9.6-43.9 8.84-46.7-2.34-84.69-41.44-85.8-88.21a90.94 90.94 0 0 1 .99-15.56c2.52-17.15 17.21-29.85 34.53-29.85h350.08c4.76 46.62 7.2 93.94 7.2 141.82a1392.34 1392.34 0 0 1-17.04 217.21z" fill="#fff"/><path d="M1060.69 2154.5a119.76 119.76 0 0 1 1.07 16.03c0 66.68-54 120.79-120.682 120.79-23.782 0-45.906-6.86-64.599-18.8-7.854 89.88-73.785 163.04-160.005 181.83-45.528-98.94-79.681-204.18-100.86-314.04h428.406c8.28 0 15.57 5.98 16.67 14.19z" fill="#fff"/><g class="G"><path d="M2101.66 1130.77c-.11-82.44 23.96-321.6 309.96-293.12 18.08 1.8 26.65 23.49 14.37 36.88-30.07 32.78-65.84 95.68-51.15 202.47 1.58 11.51-5.82 22.34-17.17 24.84l-229.06 50.51c-13.82 3.04-26.93-7.44-26.95-21.58"/></g><g class="H"><path d="M2396.68 855.94c1.15 6.3-.39 13.14-5.4 18.59-21.28 23.2-45.41 61.47-52.5 119.71a124.05 124.05 0 0 1 13.59 16.99c4-73.1 32.63-120.86 59.24-149.88.32-.34.97-1.06.43-2.47-.63-1.65-1.93-1.78-2.35-1.82l-13.01-1.12"/></g><g class="D"><path d="M2239.9 953.51c-33.27 0-66.57 11.32-91.85 33.98-14.49 34.04-21.34 69.27-24.46 98.2 62.96-5.55 128.09-8.77 194.49-8.77l22.06.12c-.01-.01-.01-.03-.01-.04-4.29-31.22-4.27-58.7-1.35-82.76-25.92-27.14-62.39-40.74-98.88-40.73"/></g><g class="E"><path d="M2338.78 994.24c-2.92 24.06-2.94 51.54 1.35 82.76 0 .01 0 .03.01.04l15.05.22c-3.16-24.01-3.91-45.98-2.82-66.03a124.05 124.05 0 0 0-13.59-16.99"/></g><g class="C"><path d="M2121.16 1130.74c-.06-44.39 7.67-154.78 80.52-220.83 48.51-43.99 118.51-61.77 208.01-52.85.42.04 1.72.17 2.35 1.82.54 1.41-.11 2.13-.43 2.47-34.16 37.25-71.63 105.37-56.09 218.31.2 1.49-.68 2.83-2.05 3.13l-229.06 50.51a2.55 2.55 0 0 1-2.27-.52c-.65-.53-.98-1.21-.98-2.04m245.13-314.93c-78.96 0-142.99 21.85-190.81 65.2-81.39 73.79-93.41 188.17-93.32 249.78a41.44 41.44 0 0 0 15.57 32.41c9.89 7.94 22.67 10.92 35.08 8.19l229.06-50.51c21.06-4.64 35.25-25.08 32.29-46.54-13.47-97.92 17.69-155.54 46.2-186.63 10.64-11.6 13.75-27.98 8.12-42.74-5.69-14.91-19.07-25.15-34.93-26.73-16.3-1.62-32.06-2.43-47.26-2.43"/></g><g class="G"><path d="M2275.68 1804.49c51.67 64.24 220.54 235.3 425.29 33.59 12.94-12.75 5.99-35.02-11.97-37.73-43.99-6.64-111.32-33.15-166.92-125.5-5.99-9.95-18.55-13.73-28.95-8.55l-210.02 104.48c-12.66 6.3-16.29 22.69-7.43 33.71"/></g><g class="H"><path d="M2318.17 1805.49l-13.87 2.6c34.66 38.84 102.66 100.61 187.89 105.54 3.65.2 7.3.31 10.96.31 61.42 0 123-29.85 183.2-88.84l-9.71-.46c-60.49 50.21-117.35 68.77-168.42 68.77-80.83 0-147.11-46.55-190.05-87.92"/></g><g class="C"><path d="M2275.68 1804.49h.05-.05m227.47 109.45c-3.66 0-7.31-.11-10.96-.31-98.17-5.68-173.49-86.77-201.31-121.36-.52-.65-.69-1.39-.52-2.2.19-.83.67-1.45 1.44-1.83l210.01-104.48c1.27-.63 2.79-.13 3.57 1.16 58.8 97.66 130.72 127.16 180.71 134.71.46.07 1.41.22 1.88 1.66.54 1.69-.38 2.6-.69 2.9-60.5 59.6-122.39 89.75-184.13 89.75m-.38-269.4a41.07 41.07 0 0 0-18.33 4.3l-210.01 104.47c-11.37 5.66-19.45 16.01-22.16 28.41-2.72 12.37.28 25.12 8.22 34.99 38.61 48.02 119.76 129.51 229.44 135.85 76.97 4.46 152.47-29.4 224.73-100.59 11.34-11.18 15.33-27.55 10.4-42.73-4.88-15.02-17.58-25.82-33.15-28.17-41.71-6.3-102.13-31.59-153.12-116.28-7.79-12.93-21.75-20.25-36.02-20.25"/></g><path d="M2544.73 1613.06l119.55-60.25s116.31-247.63-119.55-419.56l-138.92-6.12 138.92 485.93" fill="#5b6475"/><g class="C"><path d="M2546.3 1609.47l-137.13-479.69 134.7 5.93c120.48 88.12 146.22 196.41 146.58 271.8.37 76.94-24.8 136.09-28.09 143.46l-116.06 58.5m-143.85-484.99l.96 3.34 139.75 488.83 123.01-62 .37-.78c.29-.62 29.31-63.38 28.91-146.38-.37-76.67-26.57-186.83-149.25-276.26l-.61-.44-143.14-6.31"/></g><path d="M2521.03 1151.81c189.14 153.03 120.88 356.86 104.41 398.07l6.03-2.9c9.19-4.44 16.09-12.13 19.42-21.66 23.31-66.62 59.93-235.6-103.16-365.29-6.11-4.85-13.91-7.71-21.98-8.03l-4.72-.19" fill="#bcbfc6"/><path d="M2459.14 1163.7c17.98 25.29 37.35 56.01 55.13 91.4 41.35 82.33 62.13 166.86 62.11 250.39a500.28 500.28 0 0 1-5.01 70.46l2.67-1.28c13.36-31.79 95.64-252-114.9-410.97" fill="#3b4274"/><g class="C"><path d="M2533.55 1594.19l-114.59-446.51 106.79 4.32c8.07.32 15.87 3.18 21.98 8.03 163.09 129.69 126.47 298.67 103.16 365.29-3.33 9.53-10.23 17.22-19.42 21.66l-97.92 47.21m-140-486.56a19.5 19.5 0 0 0-15.16 7.24c-3.88 4.8-5.26 11.14-3.73 17.11l127.02 494.96c1.46 5.66 5.37 10.37 10.67 12.84a19.53 19.53 0 0 0 16.7-.12l119.36-57.55c18.57-8.96 32.53-24.55 39.3-43.9 11.35-32.44 29.07-98.17 20.31-173.9-10.7-92.55-56.47-171.55-136.02-234.81-12.53-9.96-28.39-15.81-44.67-16.47l-133.78-5.4"/></g><g class="G"><path d="M991.174 1705.49s80.316-208.71 434.266-439.66l76.82 638.11s-304.09 16.68-511.086-198.45"/></g><g class="H"><path d="M1024.66 1683.8c-2.96 4.84-5.63 9.65-7.98 14.41-.31 2.99.74 6.06 2.98 8.22 126.11 121.84 286.28 160.73 386.38 172.89.27-7 1.62-13.68 4.01-19.77.21-.54.43-1.08.67-1.61-102.22-13.3-259.32-53.75-386.06-174.14"/></g><g class="C"><path d="M1017.69 1694.73c24.31-47.58 123.01-213.29 392.17-395.15l70.43 585.04c-68.98-1.11-294.41-17.6-460.63-178.19-3.13-3.02-3.93-7.83-1.97-11.7m407.75-448.4a19.47 19.47 0 0 0-10.66 3.17c-289.01 188.58-398.26 361.78-431.823 427.49v.01c-9.858 19.31-5.996 42.41 9.604 57.48 210.079 202.96 498.569 189.6 510.769 188.93 5.38-.3 10.4-2.81 13.87-6.94 3.46-4.13 5.06-9.51 4.42-14.87l-76.82-638.1c-.8-6.69-5.01-12.5-11.12-15.34-2.62-1.23-5.43-1.83-8.24-1.83"/></g><path d="M1502.26 1903.94s-184.43-208.71-76.82-638.11c0 0 444.63-183.9 952.72-168.51 0 0 266.87 252.34 148.83 575.24 0 0-299.38 242.5-1024.73 231.38" fill="#efebe1"/><g class="C"><use xlink:href="#B"/><use xlink:href="#B"/></g><g class="I"><path d="M1697.54 1481.74l-3.25 3.74c-28.28 33.27-48.7 72.48-59.72 113.82 11.63-24.57 26.64-47.96 44.86-69.39 13.44-15.81 27.5-28.29 41.83-37.91-8.69-2.79-16.59-6.21-23.72-10.26"/><path d="M1922.4 1601.71c-6.49 12.39-12.05 25.38-16.25 36.07 177.12 14.1 295.31 62.48 351.75 144l6.29-2.15c-25.48-73.58-108.05-155.66-341.79-177.92"/></g><g class="C"><path d="M2264.19 1779.63l-6.29 2.15 5.24 7.94c2.62 4.17 5.04 8.36 7.26 12.53a180.24 180.24 0 0 0-6.21-22.62"/></g><g class="I"><path d="M1720.38 1277.44l-31.83 6.2c-2.36 4.97-5.7 12.58-8.86 21.79a19.45 19.45 0 0 1 11.45-4.17c3.47-.11 7.04-.16 10.72-.16 89.6 0 239.37 32.47 292.48 90.24-.1-1.27-.23-2.53-.39-3.79-7.42-57.69-161.04-105.54-273.57-110.11"/></g><path d="M1926.95 1558.1s75.07-64.28 67-127.05-189.2-113.88-302.19-110.3c0 0-97.65 176.33 125.58 159.9l109.61 77.45" fill="#95702d"/><g class="C"><path d="M1693.29 1323.21c118.92-3.37 290.74 50.27 298.18 108.16 7.19 55.91-54.38 114.21-64.69 123.54l-108.73-76.82-.89.07c-68.9 5.07-113.69-7.77-133.14-38.16-27.23-42.53 4.23-107.05 9.27-116.79m9.81-5.13a355.46 355.46 0 0 0-11.42.17l-1.42.05-.69 1.24c-1.68 3.03-40.73 74.76-9.77 123.14 20.43 31.93 66.47 45.54 136.83 40.53l110.47 78.05 1.48-1.27c3.1-2.66 76-65.88 67.85-129.26-8.2-63.77-181.07-112.65-293.33-112.65"/></g><path d="M1747.13 1342.23c25.73 9.22 47.4 23.47 63.38 42.04 19.05 22.14 22.84 50.54 11.53 76.9 2.93-.2 6.03-.2 8.92-.77 6.68-.74 13.1-2.69 19.62-5.1 6.47-2.51 12.66-6.04 18.54-10.34 5.84-4.34 11.36-9.48 15.81-15.72-1.48 7.57-4.5 15-8.4 22.06-3.94 7.04-8.81 13.85-14.68 19.92l-1.51 1.51c20.66 6.69 38.79 16.89 52.7 28.25 8.8 7.18 15.92 14.68 21.26 22.19 20.48-23.2 44.3-58.61 40.31-89.64-4.78-37.17-121.52-81.14-227.48-91.3" fill="#7c5d3f"/><path d="M1723.33 1340.52c34.71 7.88 63.61 24.02 83.39 47.01 21.02 24.43 19.54 51.98 9.68 73.64l1-.02a19.43 19.43 0 0 1 2.17.12 40.07 40.07 0 0 0 1.55-.03l.92-.07c11.31-26.36 7.52-54.76-11.53-76.9-15.98-18.57-37.65-32.82-63.38-42.04a491.51 491.51 0 0 0-23.8-1.71" fill="#604844"/><g class="C"><path d="M1789.55 1462.23c-46.62 0-77.9-10.68-91.17-31.33-16.9-26.31-4.41-68.17 5.62-90.84 114.56.01 265.17 51.14 270.61 93.47 4.6 35.81-27.83 77.46-49.43 99.44l-96.58-68.24c-3.69-2.61-8.17-3.88-12.69-3.52-9.26.68-18.06 1.02-26.36 1.02m-87.69-161.13c-3.68 0-7.25.05-10.72.16-6.86.22-13.11 4.03-16.44 10.04-1.88 3.39-45.59 83.72-9.22 140.55 23.4 36.57 72.59 52.94 146.25 48.72l103.97 73.45c7.3 5.16 17.15 4.69 23.94-1.11 3.39-2.91 82.96-71.96 73.65-144.35-10.39-80.86-204.09-127.46-311.43-127.46"/><path d="M1884.93 1429.24c-4.45 6.24-9.97 11.38-15.81 15.72-5.88 4.3-12.07 7.83-18.54 10.34-6.52 2.41-12.94 4.36-19.62 5.1-3.2.63-6.64.57-9.84.84-3.28.11-6.62-.12-9.79-.16h-.72c-11.06-.11-20.1 8.76-20.21 19.82-.11 11.05 8.76 20.1 19.82 20.21 2.88.02 5.71-.6 8.2-1.67 4.12-1.8 8.18-3.41 12.11-5.39 3.9-2.17 7.8-3.99 11.42-6.54 7.41-4.53 14-10.33 19.9-16.29 5.87-6.07 10.74-12.88 14.68-19.92 3.9-7.06 6.92-14.49 8.4-22.06"/></g><path d="M2262.69 1964.98s115.47-280.02-383.64-309.53c0 0 18.6-59.02 44.26-91.74s-119.96-149.47-229.02-21.17c-109.06 128.31-101.36 345.14 112.91 431.11 214.27 85.96 455.49-8.67 455.49-8.67" fill="#6262b1"/><g class="C"><path d="M2007.01 2006.99c-63.7 0-132.73-9.12-198.88-35.66-91.42-36.68-152.91-101.95-173.14-183.79-20.25-81.89 3.21-175.15 61.2-243.38 76.15-89.58 166.03-56.27 202.93-26.14 20.08 16.4 29.43 34.97 22.23 44.15-25.65 32.7-43.93 90.1-44.69 92.53l-.96 3.06 3.2.19c189.86 11.22 312.86 59.47 365.56 143.4 46.56 74.14 19.9 152.06 16.3 161.69-11.69 4.39-121.13 43.95-253.75 43.95m-198.03-525.9c-36.99 0-78.48 15-116.59 59.83-59.03 69.44-82.88 164.4-62.26 247.82 20.63 83.45 83.18 149.94 176.13 187.23 212.74 85.35 454.93-7.71 457.35-8.66l.99-.39.4-.99c.35-.85 34.56-86.17-16.26-167.17-53.29-84.93-176.53-133.92-366.31-145.61 4.2-12.47 21.08-60.13 42.85-87.89 9.24-11.79.01-32.33-23-51.12-19.69-16.08-53.95-33.05-93.3-33.05"/></g><path d="M1713.71 1549.98l-4.56 5.2c-51.91 61.06-74.42 143.28-60.1 217.19 5.9.76 11.53 2.02 16.89 3.77-16.76-77.33 3.94-160.26 52.2-224.64a76.99 76.99 0 0 0-4.43-1.52" fill="#bdbddd"/><g class="C"><path d="M2007.08 1990.03c-61.8 0-128.68-8.83-192.62-34.48-110.49-44.33-149.61-118.05-162.97-172.09-18.95-76.67 3.14-164.15 57.66-228.28 53.73-63.23 111.62-55.26 141.36-44.88 34.84 12.17 54.14 34.57 56.11 43.12-26.81 35.32-45.38 93.66-46.17 96.17-1.81 5.73-.87 11.97 2.54 16.92 3.4 4.95 8.91 8.05 14.9 8.41 181.14 10.71 302.83 57.41 351.91 135.05 37.01 58.55 23.97 118.7 17.52 139.83-28.25 9.78-125.48 40.23-240.24 40.23m-197.61-525.46c-42.5 0-89.12 17.2-130.04 65.34-63.45 74.65-88.05 172.93-65.8 262.91 21.98 88.9 88.14 159.54 186.3 198.93 218.92 87.84 459.74-4.64 469.89-8.62 4.94-1.94 8.88-5.81 10.9-10.72 1.57-3.81 37.85-94.34-17.58-182.69-54.16-86.32-174.19-137.38-356.99-151.94 7.4-18.84 19.03-44.85 32.51-62.03 15.64-19.95 5.58-49.29-25.62-74.77-24.5-20.01-62.07-36.41-103.57-36.41"/><path d="M1815.32 1689.67c4.88-4.08 10.42-6.9 15.98-9.21 5.6-2.27 11.35-3.83 17.06-4.93 5.75-1.04 11.49-1.57 17.2-1.69 2.82-.11 5.73.08 8.51.12l8.44.68c11.1.91 20.84-7.36 21.75-18.47.91-11.1-7.36-20.84-18.47-21.75-3.58-.29-7.02.37-10.07 1.77l-.13.07-9.65 4.55c-3.15 1.73-6.26 3.28-9.28 5.16-6.04 3.64-11.77 7.69-17.06 12.14-5.26 4.51-10.1 9.36-14.26 14.64-4.12 5.28-7.77 10.9-10.02 16.92"/></g><path d="M1809.64 1503.23c-21.29 0-46.2 5.84-71.47 24.47-2.98 3.11-5.94 6.39-8.88 9.84-3.86 4.54-7.58 9.21-11.15 13.96 50.91 19.26 88.55 95.46 78.14 113.31-19.5 33.43-79.4 40.4 20.89 81.92l5.77 2.35c17.98 7.25 23.39 31.21 9.09 44.3-5.48 5.01-11.97 6.91-19.27 6.91-11.47 0-24.9-4.7-39.42-9.4-14.51-4.71-30.11-9.41-45.92-9.41-11.57 0-23.26 2.53-34.71 9.43 14.76 12.32 22.85 28.23 27.28 41.54l55.13 25.86c1.01-1.83 2.07-3.65 3.19-5.45a19.47 19.47 0 0 1 10.43-8.22c60.13-19.9 115.38-27.9 165.44-27.9 150.32.01 253.45 72.21 298.21 111.24 4.77-28.54 5.4-73.73-22.59-118.01-49.08-77.64-170.77-124.34-351.91-135.05a19.22 19.22 0 0 1-5.07-.99l-5.39-.13c-.63 0-1.25.01-1.87.04-5.71.12-11.45.65-17.2 1.69-5.71 1.1-11.46 2.66-17.06 4.93-5.56 2.31-11.1 5.13-15.98 9.21 2.25-6.02 5.9-11.64 10.02-16.92 4.16-5.28 9-10.13 14.26-14.64 5.29-4.45 11.02-8.5 17.06-12.14 2.01-1.25 4.07-2.36 6.15-3.47 5.88-17.02 22.16-60.56 43.81-89.08-1.97-8.55-21.27-30.95-56.11-43.12-10.56-3.68-24.66-7.07-40.87-7.07" fill="#44449e"/><path d="M1738.17 1527.7c-8.15 6.02-16.34 13.37-24.46 22.28a76.99 76.99 0 0 1 4.43 1.52c3.57-4.75 7.29-9.42 11.15-13.96 2.94-3.45 5.9-6.73 8.88-9.84" fill="#8585bc"/><g class="C"><path d="M1802.23 1483.72c-37.27.01-78.44 15.34-115.39 58.82-1.65 1.94-3.19 3.97-4.78 5.95 4.32-.97 8.61-1.42 12.85-1.42 6.4 0 12.69 1.03 18.8 2.91 8.12-8.91 16.31-16.26 24.46-22.28 25.27-18.63 50.18-24.47 71.47-24.47 16.21 0 30.31 3.39 40.87 7.07 34.84 12.17 54.14 34.57 56.11 43.12-21.65 28.52-37.93 72.06-43.81 89.08l3.13-1.69c3.16-1.57 6.38-3.03 9.65-4.55l.13-.07c1-.46 2.04-.84 3.11-1.13 7.71-20.17 20.99-50.89 37.03-71.35 16.97-21.63-40.92-79.99-113.63-79.99m101.83 174.07a20.18 20.18 0 0 1-19.89 16.92 18.43 18.43 0 0 1-1.66-.07l-8.44-.68-1.25-.03a19.22 19.22 0 0 0 5.07.99c181.14 10.71 302.83 57.41 351.91 135.05 27.99 44.28 27.36 89.47 22.59 118.01a343.78 343.78 0 0 1 10.51 9.51c13.63-69.33 11.59-247.99-358.84-279.7"/><path d="M1878.83 1635.06c-1.07.29-2.11.67-3.11 1.13l-.13.07-9.65 4.55-3.13 1.69-6.15 3.47c-6.04 3.64-11.77 7.69-17.06 12.14-5.26 4.51-10.1 9.36-14.26 14.64-4.12 5.28-7.77 10.9-10.02 16.92 4.88-4.08 10.42-6.9 15.98-9.21 5.6-2.27 11.35-3.83 17.06-4.93 5.75-1.04 11.49-1.57 17.2-1.69.62-.03 1.24-.04 1.87-.04 1.8 0 3.61.09 5.39.13l1.25.03 8.44.68a18.43 18.43 0 0 0 1.66.07 20.18 20.18 0 0 0 19.89-16.92l-32.46-2.34s2.61-8.3 7.23-20.39"/></g><g class="F"><path d="M1445.13 2404.11s-53.64 35.29-115.87 10.27-59.38-222.07 139.99-138.3c199.38 83.77-24.12 128.03-24.12 128.03"/></g><g class="C"><path d="M1375.33 2420.77c-13.99 0-29.31-2.35-45.14-8.71-16.87-6.78-29.61-27.48-33.24-54-3.62-26.4 2.33-62.13 29.86-83.27 21.45-16.47 63.42-29.2 141.48 3.59 55.88 23.48 83.17 45.65 81.12 65.89-3.75 36.95-103.75 57.19-104.76 57.39l-.89.36c-.39.26-29.19 18.75-68.43 18.75m7.3-167.79c-27.72 0-46.49 8.35-58.86 17.85-29.23 22.43-35.58 60.12-31.77 87.91 3.88 28.3 17.8 50.51 36.33 57.96 59.78 24.02 112.46-6.95 117.75-10.23 8.46-1.71 104.28-22.04 108.3-61.69 2.31-22.69-26.01-46.58-84.16-71.01-36.14-15.18-64.87-20.79-87.59-20.79"/></g><path d="M1314.78 2330.43l-.93.82a89.35 89.35 0 0 0-.05 24.5c2.72 19.87 11.86 36.16 22.74 40.53 13.83 5.56 27.16 7.62 39.29 7.62 6.67 0 12.98-.62 18.81-1.62a65.52 65.52 0 0 1-1.74-6.85l-.36-2.12c-13.49-.32-28.13-2.84-43.28-8.93-18.01-7.24-30.56-28.88-34.48-53.95" fill="#fde6da"/><g class="C"><path d="M1375.83 2403.9c-12.13 0-25.46-2.06-39.29-7.62-10.88-4.37-20.02-20.66-22.74-40.53-2.97-21.67 1.61-50.77 23.37-67.47 25.63-19.67 68.69-17.68 124.53 5.78 71.78 30.16 70.81 48.31 70.79 48.5-1.28 12.73-45.58 33.35-91.15 42.42a19.69 19.69 0 0 0-6.86 2.8c-1.52.97-25.68 16.12-58.65 16.12m6.73-167.89c-32.27-.01-54.43 10.04-69.14 21.33-29.29 22.48-43.95 62.22-38.27 103.71 4.71 34.33 22.65 61.7 46.83 71.42 62.07 24.96 116.14-1.76 130.33-9.92 30.75-6.42 114.14-28.22 118.99-76.05 4.25-41.87-51.89-70.5-94.49-88.4-38.28-16.09-69.29-22.09-94.25-22.09"/></g><g class="F"><path d="M1491.7 2390.44c.22 5.32-23.96 80.71-72.32 89.24-48.36 8.54 4.62-56.18-9.25-71.65s-14.4-52.8 4.8-62.94l76.77 45.35"/></g><g class="C"><path d="M1413.76 2342.88c-7.83 4.14-13.27 12.7-15.31 24.11-2.8 15.58 1.25 33.15 9.82 42.71 4.49 5.01-.56 19.04-5.01 31.41-5.48 15.22-10.66 29.59-4.23 37.23 3.69 4.37 10.47 5.63 20.78 3.8 48.86-8.62 74.67-84.68 74.39-91.8l-5 .2 2.5-.1-2.5.07c-.07 4.49-23.41 78.44-70.26 86.71-8.26 1.45-13.67.75-16.09-2.1-4.57-5.44.57-19.72 5.11-32.32 5.41-15.02 10.52-29.2 4.03-36.44-7.5-8.36-11.12-24.54-8.62-38.49 1.76-9.86 6.28-17.16 12.73-20.57l-2.34-4.42"/><path d="M1472.22 2391.23c-.13-.6-.17-1.23-.14-1.85.01-.61.22-1.5.04-.96l-.5 1.19-1.3 3.16-3.04 6.99c-2.09 4.75-4.47 9.46-6.87 14.08-4.91 9.19-10.28 17.96-16.25 25.52-5.99 7.52-12.51 13.83-19.32 17.73-1.71.91-3.42 2.05-5.19 2.5-1.76.6-3.46 1.55-5.39 1.87-1.88.49-3.27.56-3.48.76.08.03.12.12.19.24a2.28 2.28 0 0 1 1.04.6c.53.29 1.18.74 1.58 1.3.61.48 1.11 1.22 1.44 1.87 1.46 2.85.59 3.3.54 2.12-.12-1.17-.01-3.29.32-5.54.73-4.68 2.14-10.09 3.68-15.77 1.55-5.71 3.23-11.63 4.38-18.48.57-3.45 1.1-7.03.99-11.52-.09-2.24-.26-4.65-1.07-7.5a21.65 21.65 0 0 0-4.64-8.69c-6.31-5.17-10.23-15.09-11.44-25.29-.98-10.05.35-21.29 8.44-28l.16-.13a2.82 2.82 0 0 0 .37-3.96 2.82 2.82 0 0 0-3.13-.84c-6.36 2.33-11.61 7.55-14.91 13.43-3.43 5.9-5.32 12.44-6.25 19.06-.95 6.64-.88 13.44.43 20.31.68 3.43 1.63 6.89 2.99 10.37.71 1.74 1.61 3.47 2.46 5.21.5.86 1.08 1.72 1.64 2.56l.87 1.28.44.63c.06.09.18.24.19.28l-.12-.05c-1.18-1.13-.96-1.09-1.34.45-.29 1.4-1 3.6-1.87 5.84-1.76 4.53-4.16 9.64-6.56 14.99-2.43 5.37-5.02 11.02-7.28 17.71-1.08 3.45-2.18 7.1-2.68 11.8-.1 1.25-.14 2.56-.17 3.85-.02 1.31.17 2.98.33 4.46.15 1.48.73 3.47 1.23 5.16.54 1.76 1.63 3.83 2.65 5.62 1.18 1.83 2.72 3.63 4.29 5.22 1.61 1.38 3.43 2.74 5.2 3.79 1.65.85 3.37 1.62 5.12 2.29 1.5.46 2.98.83 4.49 1.17 5.6 1.03 10.13.94 14.07.63 3.95-.17 7.83-1.17 11.76-2 4.04-.67 7.56-2.33 11.22-3.8 14.43-6.21 25.79-15.97 34.81-26.41 2.29-2.62 4.58-5.22 6.45-8.01 1.99-2.75 3.99-5.5 5.69-8.34 3.67-5.59 6.81-11.37 9.61-17.28 2.91-5.87 5.3-11.9 7.46-18.1 1.12-3.08 1.99-6.28 2.92-9.58.46-1.77.84-3.24 1.24-5.29l.58-3.07c.04-.17.32-1.79.44-3.12.12-1.35.18-2.71.16-4.04-.44-10.76-9.52-19.13-20.28-18.7-10.76.44-19.13 9.52-18.69 20.28"/></g><g class="J"><path d="M2053.84 2204.53s-24.72 100.34-161.02 140c-136.3 39.65-391.68 55.1-391.68 55.1s-67.38-54.02-31.89-123.55c0 0 286.07-182.41 397.9-213.53l186.69 141.98"/></g><g class="K"><path d="M1727.27 2146.9c-104.4 55.83-218.44 127.25-242.81 142.64-7 16.12-7.1 31.19-3.84 44.36l103.84-63.4c22.39-8.63 42.18-12.2 59.6-12.2 45.81 0 75.25 24.66 92.45 46.79-23.43-72.27-20.44-120.28-9.24-158.19"/></g><g class="L"><path d="M1749.48 2337.96c-123.8 18.84-253.34 26.68-253.34 26.68s-.79-.65-2.17-1.88c5.06 7.39 10.35 13.15 14.13 16.87 30.75-2.09 143.26-10.45 249.15-26.86-2.74-4.79-5.34-9.73-7.77-14.81"/></g><g class="C"><path d="M1867.16 2043.04c-1.73 0-3.49.23-5.24.72-113.33 31.54-391.37 208.36-403.15 215.88-2.93 1.86-5.31 4.48-6.88 7.57-33.8 66.19 9.46 125.52 37.05 147.64 3.77 3.03 8.55 4.57 13.38 4.25 10.51-.63 259.12-16.04 395.94-55.85 145.43-42.31 173.4-149.51 174.52-154.05 2.57-10.46-3.82-21.02-14.27-23.6-10.44-2.57-20.95 3.77-23.58 14.16-.95 3.67-24.68 90.29-147.56 126.04-119.13 34.66-334.78 50.8-379.27 53.83-12.63-12.45-42.08-47.6-23.64-90.09 37.54-23.7 287.87-180.36 387.92-208.21 10.38-2.88 16.45-13.64 13.56-24.01-2.4-8.63-10.24-14.28-18.78-14.28"/></g><g class="J"><path d="M1784.53 1936.44c-7.32-27.37-2.81-52.12 10.34-73.29 292.71-96.89 467.48 101.44 467.82 101.83 1.47 3.55 2.9 7.14 4.27 10.81 104.35 280.56-165.94 461.9-165.94 461.9-12.45 9.13-278.85 63.29-344.86-135.26s74.56-193.21 28.37-365.99"/></g><g class="L"><path d="M2052.32 1867.68c115.91 41.53 177.01 126.24 177.22 126.48 1.47 3.55 2.91 7.15 4.27 10.81 34.54 92.86 28.04 174.85 3.88 242.99 41.11-85.32 44.85-174.34 10.98-265.38-.86-2.34-1.76-4.65-2.68-6.93-9.38-9.8-49.94-49.7-116.23-80.58-25.28-11.78-51.11-20.91-77.44-27.39"/></g><g class="K"><path d="M1953.62 1855.8c-45.07 0-91.32 7.13-138.54 21.41 30.98 14.58 62.06 29.05 92.37 45.13 33.46 17.88 66.08 37.59 97.58 59.18a914.02 914.02 0 0 1 23.38 16.61l22.68 17.76c7.49 5.99 14.57 12.7 21.71 19.09 7.05 6.57 13.53 14 19.92 21.09.85.94 1.04 2.37.37 3.53-.55.93-1.52 1.47-2.54 1.49l-15 210.43c37.96 3.93 74.57 13.87 109.8 29.8 13.56-78.18 21.15-190.27-2.92-325.53-.68-3.85-2.79-7.26-4.26-10.81-.2-.23-60.58-68.71-169.68-105.58-18.08-2.4-36.37-3.6-54.87-3.6m-189.56 304.38c-9.23 32.84-10.35 73.04 10.61 136.1 5.42 16.32 12.5 31.22 21.2 44.68 25.41-15.96 53.93-29.77 85.49-41.4a544.15 544.15 0 0 1 31.58-10.57l-16.23-8.67-17.4-11.25c-5.79-3.77-10.98-8.26-16.49-12.38l-8.14-6.32-7.5-6.58-14.91-13.26-14.23-13.73c-4.81-4.54-9.45-9.18-13.99-13.89l-13.69-14.11-26.3-28.62"/></g><g class="C"><path d="M2089.48 2421.96l.01-.01-.01.01m-304.95-485.52h.05-.05m23.57-57.07c113.76-36.02 221.96-30.74 321.66 15.7 66.29 30.88 106.85 70.78 116.23 80.58l2.68 6.93c40.81 109.71 27.02 216.49-40.98 317.38-48.47 71.91-108.84 115.45-116.7 120.95-12.86 4.69-123.91 27.89-215.1-12.77-49.89-22.25-83.94-59.88-101.22-111.86-32.38-97.39-12.07-140.28 9.42-185.68 20.12-42.52 42.93-90.71 19.28-179.2-4.96-18.55-3.37-36.02 4.73-52.03m146.08-62.63c-50.06 0-105.31 8-165.44 27.9a19.47 19.47 0 0 0-10.43 8.22c-16.61 26.72-20.98 57.37-12.62 88.62 19.96 74.66 2.9 110.7-16.85 152.43-22.73 48.02-48.49 102.44-11.19 214.67 24.17 72.7 74.98 121.84 151.03 146.07 97.15 30.94 206.01 10.19 223.2-.78v.01c2.89-1.93 71.37-48.39 127.38-130.99 75.04-110.64 90.94-233.02 45.97-353.9-1.44-3.89-2.96-7.71-4.52-11.48a19.5 19.5 0 0 0-3.41-5.46c-6.02-6.8-122.58-135.29-323.12-135.31"/></g><g class="F"><path d="M1705.84 1859.46s-3.85-85.33-97.52-65.44c-93.66 19.89-61.58 73.13-128.94 54.53s-73.78 65.44-7.06 100.08 132.17 6.32 136-12.19 97.52-76.98 97.52-76.98"/></g><g class="C"><path d="M1503.09 1854.92c17.04 0 24.44-8.26 33.7-18.58 12.13-13.52 27.22-30.35 72.05-39.87 28.71-6.1 51.61-2.75 68.07 9.97 21.68 16.73 25.67 45.05 26.32 51.7-14.26 8.95-93.56 59.45-97.35 77.79-1.06 5.13-8.25 11.42-18.76 16.42-24.61 11.7-69.14 17.17-113.65-5.94-37.91-19.68-51.81-56.24-42.94-78.82 6.65-16.91 24.64-23.13 48.18-16.63 9.96 2.75 17.87 3.96 24.38 3.96m131.76-66.41c-8.4 0-17.42 1.02-27.04 3.06-46.43 9.86-62.79 28.11-74.75 41.43-12.45 13.89-19.97 22.28-53.02 13.14-26.23-7.25-46.49.09-54.16 19.62-9.66 24.6 4.91 64.12 45.29 85.09 46.13 23.96 92.46 18.21 118.1 6.01 12.25-5.83 20.09-13.09 21.5-19.91 2.65-12.82 59.1-52.09 96.39-75.37l1.24-.78-.07-1.46c-.06-1.47-1.93-36.42-28.33-56.84-12.05-9.31-27.17-13.99-45.15-13.99"/></g><path d="M1445.04 1879.46c-1.48 14.69 8.93 37.66 36.27 51.86 20.13 10.45 39.63 14.07 56.46 14.07 26.56 0 46.45-9.02 51.61-14.43.37-2.48.77-4.57 1.23-6.92l.3-1.36c-11.67 4.34-26.37 7.31-42.79 7.31-20.16 0-42.91-4.47-65.8-16.36-17.26-8.96-29.61-21.23-37.28-34.17" fill="#fde6da"/><g class="C"><path d="M1627.42 1940.41v-.02.02m-124.38-68.55c22.44 0 34.29-10.66 46.41-24.17 11.02-12.29 23.52-26.23 62.93-34.59 23.47-4.99 41.64-2.75 53.96 6.65 10.88 8.31 15.9 21.08 18.18 30.1-82.76 52.78-92.78 72.97-94.88 80.83-7.66 8.71-55.85 27.89-108.33.64-31.19-16.19-40.34-43.81-34.95-57.51 4.13-10.54 17.4-9.34 27.83-6.46 11.32 3.13 20.77 4.51 28.85 4.51m131.93-100.37c-9.62 0-19.85 1.15-30.7 3.45-51.85 11.01-71.11 32.5-83.86 46.71-10.71 11.95-12.95 14.43-35.84 8.1-41.81-11.55-66.28 8.83-74.52 29.8-12.62 32.14 3.86 80.72 53.28 106.39 51.62 26.8 102.66 20.81 133.25 6.27 11.78-5.6 26.38-15.29 30.4-29.98 7.24-10.85 51.42-42.66 89.18-66.23a19.49 19.49 0 0 0 9.16-17.42c-.08-1.8-2.36-44.35-34.92-69.53-15.12-11.69-33.69-17.56-55.43-17.56"/></g><g class="J"><path d="M2074.07 2292.27s-97.51 34.22-205.29-58.16c-107.77-92.38-260.46-297.67-260.46-297.67s8.34-85.97 85.97-94.3c0 0 309.21 139.61 396.46 216.18l-16.68 233.95"/></g><g class="L"><path d="M1784.79 1906.43c31.94 30.3 68.65 59.72 108.44 80.51 63.17 33.01 127.93 51.94 159.87 60.1-2.4-3.51-4.93-6.87-7.53-10.07-18.7-9.64-37.58-18.82-56.55-28.04l-100.9-49.35-100.08-51.54-3.25-1.61"/></g><g class="C"><path d="M2073.08 2289.45c-25.92-1.02-49.97-4.86-73.03-10.48-22.96-6-45.33-13.6-66.15-25.15l-15.33-9.09c-4.87-3.48-9.81-6.83-14.73-10.2-4.94-3.36-9.4-7.48-14.13-11.17l-7-5.67-6.87-6.33c-18.58-16.43-36.27-34.62-53.98-52.66-35.14-36.58-69.15-74.8-102.2-113.86-32.99-39.06-65.04-79.33-95.69-120.04l3.76 13.52c.18-1.44.65-4.27 1.1-6.52.53-2.4 1.04-4.8 1.74-7.19 1.26-4.8 2.9-9.5 4.75-14.04 3.72-9.08 8.59-17.41 14.44-24.49 5.74-7.25 12.88-12.67 20.68-16.78 7.64-4.51 16.78-6.18 25.93-7.77l-10.11-1.62 101.78 48.13 100.08 51.54 100.9 49.35c33.73 16.38 67.18 32.66 99.76 51.63l.2.12c1.43.83 3.27.35 4.11-1.08.67-1.16.48-2.59-.37-3.53-6.39-7.09-12.87-14.52-19.92-21.09-7.14-6.39-14.22-13.1-21.71-19.09-7.45-6.04-15.03-11.94-22.68-17.76a914.02 914.02 0 0 0-23.38-16.61c-31.5-21.59-64.12-41.3-97.58-59.18-33.53-17.78-67.99-33.6-102.21-49.77l-102.93-48.21-.71-.32c-3.06-1.39-6.31-1.77-9.4-1.29-13.46 2.06-27.33 4.95-39.82 11.97-12.51 6.54-23.94 15.6-32.58 26.38-8.82 10.66-15.57 22.49-20.58 34.7-2.5 6.11-4.63 12.32-6.31 18.65-.9 3.14-1.6 6.37-2.3 9.59-.66 3.4-1.21 6.24-1.7 10.52-.56 4.92.85 9.62 3.61 13.3l.16.22 47.38 61.74 48.37 60.84c32.69 40.25 65.98 80.12 101.93 118.14l13.69 14.11c4.54 4.71 9.18 9.35 13.99 13.89l14.23 13.73c4.86 4.51 9.91 8.88 14.91 13.26l7.5 6.58 8.14 6.32c5.51 4.12 10.7 8.61 16.49 12.38l17.4 11.25c6.03 3.41 12.25 6.55 18.36 9.8 24.9 12.1 51.85 21.49 79.86 23.27 27.8 1.33 56.47-2.74 80.13-18.3 1.42-.93 1.81-2.83.88-4.24-.56-.85-1.48-1.34-2.42-1.38l-.44-.02"/></g><path d="M2090.55 2061.09l-15 210.43 15-210.43" fill="#a35428"/><g class="K"><path d="M1691.64 1862.37c-7.53 1.41-14.88 3.2-21.2 6.93-7.8 4.11-14.94 9.53-20.68 16.78-5.85 7.08-10.72 15.41-14.44 24.49-1.85 4.54-3.49 9.24-4.75 14.04-.66 2.24-1.14 4.5-1.64 6.76 29.14 38.48 59.52 76.51 90.73 113.47 33.05 39.06 67.06 77.28 102.2 113.86 17.71 18.04 35.4 36.23 53.98 52.66l6.87 6.33 7 5.67c4.73 3.69 9.19 7.81 14.13 11.17l14.73 10.2c5.04 3.14 10.23 6.03 15.33 9.09 15.16 8.41 31.15 14.73 47.58 19.86 19.09-2.73 37.89-4.1 56.39-4.1 12.7 0 25.27.65 37.68 1.94l15-210.43h-.06c-.51 0-1.03-.13-1.51-.41l-.2-.12-15.32-8.69c-.48-.11-7.93-1.66-20.36-4.83 18.73 27.33 30.03 64 13.9 109.5-6.17 17.43-21.82 24.92-43.45 24.92-114.32 0-394.96-209.8-317.71-270.43 14.43-11.33 31.24-17.18 49.32-18.99l-63.52-29.67"/></g><path d="M2045.57 2036.97c2.6 3.2 5.13 6.56 7.53 10.07 12.43 3.17 19.88 4.72 20.36 4.83l-27.89-14.9" fill="#caa390"/><g class="C"><path d="M1694.29 1842.14c-77.63 8.33-85.97 94.3-85.97 94.3s152.69 205.29 260.46 297.67c25.8 22.11 51.01 36.97 74.44 46.78 12.88-3 25.64-5.4 38.26-7.21-16.43-5.13-32.42-11.45-47.58-19.86l-15.33-9.09c-4.87-3.48-9.81-6.83-14.73-10.2-4.94-3.36-9.4-7.48-14.13-11.17l-7-5.67-6.87-6.33c-18.58-16.43-36.27-34.62-53.98-52.66-35.14-36.58-69.15-74.8-102.2-113.86-31.21-36.96-61.59-74.99-90.73-113.47.5-2.26.98-4.52 1.64-6.76 1.26-4.8 2.9-9.5 4.75-14.04 3.72-9.08 8.59-17.41 14.44-24.49 5.74-7.25 12.88-12.67 20.68-16.78 6.32-3.73 13.67-5.52 21.2-6.93l63.52 29.67a128.28 128.28 0 0 1 12.93-.63c13.49 0 27.51 1.94 41.64 5.27l-115.44-54.54m291.25 146.39l.05.03a.74.74 0 0 0 .13.07c-.06-.04-.12-.07-.18-.1m.18.1l13.95 8.07c-7.7-4.92-13.07-7.64-13.95-8.07m13.95 8.07c12.28 7.86 30.48 21.36 45.9 40.27l27.89 14.9 15.32 8.69.2.12c.48.28 1 .41 1.51.41h.06l.2-2.77c-20.45-17.95-53.09-39.36-91.08-61.62"/></g><g class="G"><path d="M2991.16 958.41c161.08-21.81 310.99 51.84 310.99 51.84l-78.42 16.18 185.78 41.82L3285 1212.33l72.67-33.62s-76.75 148.35-219.23 226.58c-438.3 240.66-642.78-379.79-147.28-446.88"/></g><g class="H"><path d="M3357.67 1178.71l-.01.01h.01m0 0l-46.98 31.97c-36.82 48.86-94.77 112.06-172.25 154.6-70.59 38.76-135.09 55.18-191.6 55.18-76.36 0-138.11-30-180.4-75.42.83 4.57 1.79 9.11 2.89 13.62 14.51 18.08 31.87 33.79 51.41 46.11 10.79 6.64 22.04 12.49 33.75 17.32 11.82 4.56 23.87 8.57 36.32 11.17 18.02 4.03 36.55 5.75 55.19 5.75 7.04 0 14.09-.24 21.14-.7 51.55-4.16 102.51-20.75 150.39-44.37 12.15-5.74 23.43-12.52 35.11-18.91 5.69-3.41 11.21-7.16 16.87-10.68l8.45-5.37 8.13-5.87c22.23-14.99 42.63-32.74 62.77-50.91 20.01-18.34 39.04-38 57.1-58.67 18.27-20.55 35.41-42.19 51.7-64.82"/></g><path d="M2936.6 1085.56c-11.32 0-22.49.74-33.18 2.19-116.47 15.76-164.01 91.01-159.45 158.6 4.16 61.76 54.42 127.41 139.37 127.41 33.28 0 68.44-10.04 104.5-29.84 75.32-41.35 115.49-117.8 117.17-121.03l22.42-43.34-10.53 4.87 30.24-35-45.11-10.15 11.35-2.34-43.8-21.52c-2.48-1.22-61.55-29.85-132.98-29.85" fill="#f4cd11"/><path d="M2883.34 1390.48c-42.48 0-81.7-15.5-110.45-43.65-26.86-26.31-43.05-61.59-45.6-99.36-5.07-75.34 46.72-159.07 173.88-176.29 11.45-1.55 23.36-2.33 35.43-2.33 75.26 0 137.73 30.27 140.36 31.55l60.4 29.69 40.67 9.15-27.23 31.52-30.95 59.81c-1.77 3.42-44.23 84.23-123.96 128-38.56 21.17-76.42 31.91-112.55 31.91m0-33.43c28.45 0 60.93-8.27 96.46-27.78 71.72-39.38 110.36-114.06 110.36-114.06l-36.58 16.92 62.67-72.53-93.52-21.05 39.48-8.14s-57.25-28.13-125.61-28.13c-10.12 0-20.49.61-30.94 2.03-209.27 28.33-170.53 252.74-22.32 252.74" fill="#fb8011"/><g class="F"><path d="M1819.89 2757.17c-2.9-76.36-57.85-136.27-122.73-133.81s-115.13 66.36-112.24 142.72c2.9 76.36 57.85 136.26 122.73 133.8s115.13-66.35 112.24-142.71"/></g><g class="C"><path d="M1703.77 2897.45c-29.26 0-57.15-12.9-78.88-36.6-22.79-24.84-36.09-58.53-37.46-94.87-2.85-74.86 46.42-137.71 109.82-140.12 30.73-1.15 60 11.82 82.68 36.54 22.78 24.83 36.08 58.53 37.46 94.86 2.84 74.86-46.44 137.72-109.83 140.12a95.99 95.99 0 0 1-3.79.07m-2.72-276.66a88.22 88.22 0 0 0-3.98.08c-66.16 2.51-117.58 67.69-114.64 145.3 1.42 37.53 15.19 72.35 38.77 98.06 23.68 25.82 54.47 39.38 86.54 38.15 66.16-2.51 117.58-67.69 114.65-145.31-1.43-37.52-15.2-72.34-38.78-98.05-22.7-24.75-51.89-38.23-82.56-38.23"/><path d="M1703.8 2880.05c-24.34 0-47.7-10.92-66.09-30.97-19.99-21.79-31.67-51.54-32.89-83.76-2.48-65.26 39.28-120.03 93.1-122.07 25.33-.98 50.01 10.02 69.18 30.91 19.99 21.8 31.67 51.54 32.89 83.76 2.48 65.27-39.28 120.03-93.1 122.07a79.62 79.62 0 0 1-3.09.06m-2.72-276.67c-1.55 0-3.11.03-4.68.09-75.74 2.87-134.67 76.16-131.37 163.36 1.58 41.65 16.97 80.41 43.34 109.16 27.19 29.65 62.6 45.23 100.04 43.78 75.74-2.87 134.67-76.15 131.37-163.36-1.58-41.64-16.97-80.41-43.34-109.16-26.06-28.4-59.76-43.87-95.36-43.87"/></g><g class="F"><path d="M2536.29 2474.8l-.1-.1c-38.22-66.13-114.7-93.4-170.88-60.96-12.84 7.42-23.49 17.27-31.8 28.92-100.97-118.49-245.08-198.16-445.28-124.41-185.91 68.47-232.04 204.37-224.78 336.2 9.51 171.68 109.63 336.49 109.63 336.49l70.07 117.641 684.88-284.691c-11.25-33.69-30.5-92.01-59.71-158.05 12.24-1.94 24.18-6.02 35.33-12.44 56.23-32.49 70.86-112.46 32.64-178.6"/></g><g class="C"><path d="M2536.61 2474.46l.05-.03-.37.37.32-.34m-692.42 630.982l-68.96-115.782c-1.01-1.66-99.92-166.29-109.28-335.35-9.02-163.58 66.06-275.86 223.15-333.71 170.24-62.72 319.13-21.12 442.5 123.68l2.08 2.44 1.86-2.61c8.29-11.61 18.72-21.1 31.02-28.2 54.9-31.71 130.01-4.76 167.47 60.04l.25.37c18.07 31.4 24.69 66.89 18.65 99.95-6.03 33-23.98 59.62-50.53 74.96-10.61 6.11-22.2 10.2-34.48 12.14l-3.21.51 1.32 2.97c28.37 64.14 47.35 121.04 58.69 155.03l.2.59-680.73 282.972m192.96-818.222c-47.88 0-97.85 9.55-149.78 28.68-159.39 58.71-235.57 172.66-226.42 338.68 9.44 170.34 108.99 336 109.99 337.66l71.17 119.48 2-.829 687.03-285.591-1.67-5c-11.2-33.56-29.82-89.39-57.58-152.54 11.71-2.22 22.8-6.31 33.01-12.19 27.84-16.1 46.65-43.94 52.95-78.4 6.27-34.32-.62-71.12-19.4-103.62l-.25-.38c-38.89-66.99-116.94-94.62-174.14-61.59-12.01 6.93-22.32 16.02-30.7 27.06-86.78-100.81-185.98-151.42-296.21-151.42"/></g><path d="M2036.24 2309.91c-45.13 0-92.21 8.99-141.11 27.01-100.39 36.97-165.96 97.66-194.88 180.4-8.3 23.72-13.33 48.39-15.76 73.44 52.55-123.5 167.27-220.54 326.36-228.77 5.74-.3 11.45-.44 17.08-.44 176.47 0 300.05 140.27 300.05 140.27 41.53-41.7 83.48-54.14 118.75-54.14 19.19 0 36.39 3.68 50.48 8.33-22.86-23.1-52.02-36.05-80.03-36.05-14.64 0-28.96 3.54-41.9 11.01-10.13 5.85-18.72 13.67-25.56 23.24-3.55 4.99-9.22 8.06-15.34 8.32-.29.02-.58.02-.87.02-5.92 0-11.34-2.54-15.14-6.99-82.64-96.98-177.13-145.65-282.13-145.65" fill="#cca09c"/><g class="C"><path d="M1851.44 3083.576l-61.25-102.826c-1.68-2.78-159.03-265.84-89.94-463.43 28.92-82.74 94.49-143.43 194.88-180.4 162.68-59.93 305.08-20.02 423.24 118.64a19.73 19.73 0 0 0 16.01 6.97c6.12-.26 11.79-3.33 15.34-8.32 6.84-9.57 15.43-17.39 25.56-23.24 46.61-26.91 111.12-2.78 143.79 53.78 16.12 27.9 22.07 59.29 16.75 88.38-5.1 27.89-20.06 50.28-42.12 63.03-8.73 5.03-18.33 8.4-28.49 10.01a19.9 19.9 0 0 0-14.36 10.15c-2.96 5.42-3.23 11.91-.72 17.57 24.27 54.87 41.64 104.51 53.15 138.72l-651.84 270.966m186.43-813.996c-50.02 0-102.22 9.98-156.51 29.98-112.11 41.29-185.71 110.18-218.73 204.73-75.23 215.42 86.53 485.58 93.45 496.978l69.98 117.491c5.05 8.5 15.58 11.997 24.74 8.196l684.89-284.695a19.91 19.91 0 0 0 11.24-24.68l-.94-2.8c-10.2-30.57-26.5-79.46-50.26-135.7a121.32 121.32 0 0 0 17.86-8.44c32.37-18.7 54.16-50.78 61.39-90.35 7.02-38.38-.59-79.38-21.44-115.45-43.63-75.56-132.54-106.22-198.17-68.35a120.7 120.7 0 0 0-21.83 16.11c-87.23-95.23-186.21-143.01-295.67-143.02"/><path d="M2064.92 2578.33s-4.7-25.28-19.21-51.96c-19.58-36.04-57.07-74.71-125.09-57.67-7.4 1.84-14.06 4.08-20.12 6.69-85.83 36.68-44.23 141.45-44.23 141.45s103.34-57.86 208.65-38.51z"/></g><path d="M2045.71 2526.37c-19.58-36.04-57.07-74.71-125.09-57.67-7.4 1.84-14.06 4.08-20.12 6.69 1.33 28.3 34.3 54.75 77.91 60.98 25.77 3.68 49.92-.46 67.3-10z" fill="#ff467b"/><g class="C"><path d="M1903.12 2477c5.59-2.3 11.67-4.27 18.1-5.88 65.24-16.34 101.73 19.9 121.07 54.23-17.32 8.74-40.3 11.86-63.53 8.54-41.02-5.85-73.1-30.13-75.64-56.89zm49.29-14.96c-9.96 0-20.74 1.31-32.4 4.23-7.33 1.83-14.22 4.12-20.5 6.82l-1.59.68.09 1.73c1.39 29.8 35.81 57.03 80.04 63.34 25.29 3.61 50.39-.14 68.86-10.28l2.18-1.2-1.18-2.19c-16.53-30.4-45.86-63.13-95.5-63.13z"/><path d="M1866.05 2594.14c-6.59-27.65-11.65-81.68 40.73-104.06 5.39-2.32 11.34-4.29 17.7-5.88 46.81-11.73 82.87 5.03 107.2 49.8 4.89 8.99 8.56 17.79 11.24 25.32-75.53-6.31-145.3 20.32-176.87 34.82zm86.01-145.51c-11.32 0-23.11 1.52-35.32 4.57-8.02 2-15.61 4.53-22.55 7.51-79.18 33.84-69.14 120.78-52.77 162.02a15.97 15.97 0 0 0 9.5 9.16c4.35 1.54 9.14 1.13 13.15-1.11.97-.55 99.76-54.78 197.96-36.74 5.2.96 10.49-.71 14.2-4.43s5.35-9.03 4.39-14.21c-.21-1.13-5.34-28.09-20.88-56.66-25-46-62.49-70.11-107.68-70.11z"/></g><path d="M2634.57 2744.07c-7.51-14.68-17.36-29.71-30-44.89-41.16-49.36-111.82-100.37-227.92-147.89 0 0-40.55 71.06 13.84 291.76 0 0-396.51 19.11-604.52 169.489l-97.99-221.049s-20.45 86.74 17.92 285.094c0 0-107.29 224.829 76.14 370.983 5.97 4.777 12.19 9.404 18.76 13.983l4.82 3.284c70.52 46.958 69.61-.529 90.37-48.014 16.82-38.466 47.86-76.933 142.62-65.197 144.12 17.865 595.02 31.251 566.2-390.633 0 0 90.42-98.44 29.76-216.92" fill="#d89554"/><g class="C"><path d="M1784.93 3016.371l2.5-1.807c205.02-148.214 599.22-168.834 603.18-169.024l3.03-.14-.73-2.95c-48.61-197.26-20.72-275.05-15.03-287.95 103.88 42.77 179.5 91.98 224.77 146.28 11.99 14.4 21.98 29.35 29.7 44.43 59.14 115.51-28.48 213.11-29.37 214.09l-.73.78.07 1.08c8.31 121.703-23.1 217.131-93.38 283.627-140.98 133.416-395.41 113.601-470.02 104.355-116.68-14.462-138.54 46.304-154.48 90.669-7.04 19.602-13.13 36.531-25.92 40.758-11.29 3.737-27.65-1.927-51.51-17.816-1.59-1.042-3.16-2.122-4.78-3.254-6.64-4.624-12.73-9.168-18.63-13.887-179.73-143.203-76.51-365.72-75.44-367.952l.35-.742-.15-.808c-31.42-162.43-23.14-250.52-19.33-276.1l95.9 216.361m590.64-468.231l-1.09 1.91c-1.66 2.92-40.09 73.81 12.86 290.67-37.09 2.21-403.06 27.4-600.33 167.995l-99.75-225.035-1.7 7.24c-.21.87-20.09 89.3 17.73 285.351-6.61 14.625-100.34 231.795 77.19 373.249 5.98 4.786 12.16 9.393 18.89 14.081l4.88 3.322c25.23 16.795 42.98 22.637 55.84 18.393 15.1-4.992 21.57-22.983 29.05-43.815 15.38-42.777 36.4-101.377 149.16-87.397 75.17 9.321 331.51 29.238 474.08-105.684 71.21-67.386 103.17-163.794 95-286.57 8.5-9.84 87.25-105.96 29.42-218.92-7.89-15.41-18.09-30.67-30.31-45.35-46.12-55.32-123.13-105.31-228.89-148.61l-2.03-.83"/></g><path d="M2629 2746.81l.12 5.18 5.4 9.63-5.41-1.8c-1.8 116.43-77.09 203.9-77.09 203.9 25.32 318.232-245.52 345.072-436.13 345.072-19.34 0-37.84-.276-55.13-.552l-47.82-.552c-25.22 0-45.53.839-58.87 3.979-118.93 28-116.5 138.638-116.5 138.638h-41.72l5.81 8.795.57.399 4.78 3.254c19.16 12.759 33.48 18.923 44.23 18.923 2.64 0 5.06-.371 7.28-1.107 3.22-1.064 6.02-2.934 8.51-5.447 9.08-12.755 14.03-34.158 23.39-55.562 5.01-11.467 11.29-22.932 20.14-33.069 17.26-22.241 45.06-39.527 95.37-39.524 10.06.001 21.03.693 32.99 2.175 23.18 2.873 63.72 6.766 112.83 6.766 108.94 0 260.02-19.162 357.19-111.121 7.5-7.099 14.56-14.523 21.18-22.278 48.53-59.176 77.07-142.42 69.12-258.789 0 0 1.12-1.21 3.02-3.53l-.01-.11.73-.78c.01-.02.03-.04.07-.09 16.54-20.55 78.99-108.81 25.95-212.4" fill="#efd4ba"/><path d="M2006.36 3351.998a196.97 196.97 0 0 0-10.42.268l4.54-.048c9.93 0 20.75.682 32.56 2.145 27.88 3.457 67.27 6.747 112.43 6.747 11.04 0 22.44-.198 34.09-.636l-27.95.425c-49.31 0-90.01-3.907-113.31-6.795-11.59-1.437-22.19-2.106-31.94-2.106m-224.9 98.307h-5c5.98 4.778 12.2 9.406 18.76 13.985l4.83 3.284c20.51 13.659 34.99 19.328 45.7 19.328 1.42 0 2.77-.099 4.06-.292-11.65-.538-26.47-6.975-45.56-19.687-1.61-1.056-3.22-2.165-4.88-3.322-6.36-4.431-12.23-8.79-17.91-13.296" fill="#fff"/><path d="M2603.05 2959.21l-.07.09-.73.78.01.11.79-.98m-72.93 263.299c-6.62 7.755-13.68 15.179-21.18 22.278-97.17 91.959-248.25 111.121-357.19 111.121-49.11 0-89.65-3.893-112.83-6.766-11.96-1.482-22.93-2.174-32.99-2.175-50.31-.003-78.11 17.283-95.37 39.524 16.57-18.972 42.17-33.288 85.38-34.225a196.97 196.97 0 0 1 10.42-.268c9.75 0 20.35.669 31.94 2.106 23.3 2.888 64 6.795 113.31 6.795 9.04 0 18.38-.132 27.95-.425 119.04-4.48 265.49-34.252 350.56-137.965m-744.64 227.796h-4.02c5.68 4.506 11.55 8.865 17.91 13.296l4.88 3.322c19.09 12.712 33.91 19.149 45.56 19.687 7.38-1.101 12.79-5.265 17.22-11.488-2.49 2.513-5.29 4.383-8.51 5.447-2.22.736-4.64 1.107-7.28 1.107-10.75 0-25.07-6.164-44.23-18.923-1.59-1.042-3.16-2.122-4.78-3.254l-.57-.399 3.96 5.734a211.06 211.06 0 0 1-4.82-3.284c-5.32-3.691-10.41-7.438-15.32-11.245" fill="#9999c6"/><path d="M2377.88 2554.5c-5.69 12.9-33.58 90.69 15.03 287.95l.73 2.95-3.03.14c-3.96.19-398.16 20.81-603.18 169.024l-2.5 1.807-95.9-216.361c-3.81 25.58-12.09 113.67 19.33 276.1l.15.808-.35.742c-1.07 2.232-104.29 224.749 75.44 367.952l6 4.693h6.25c-37.56-58.502-78.47-154.726-44.62-253.345 54.84-159.937 210.61-179.235 210.61-179.235s-118.68 90.847-113.82 292.112c0 0 59.03-227.822 291.62-311.967 0 0-38.57 31.141-50.9 141.508 0 0 89.74-186.128 302.32-186.128 24.14 0 49.87 2.4 77.23 7.75 0 0-34.07-211.55 102.39-211.55 16.78 0 36.12 3.2 58.43 10.37.04-2.6.04-5.2.01-7.83-30.25-52.48-66.82-92.17-110.78-124.65-38.76-25.94-85.68-50.29-140.46-72.84" fill="#97695d"/><g class="C"><path d="M2376.65 2551.29s-40.55 71.06 13.84 291.76c0 0-396.51 19.11-604.52 169.489l-97.99-221.049s-20.45 86.74 17.92 285.094c0 0-108.62 227.6 79.58 373.721h4.12l-6-4.693c-179.73-143.203-76.51-365.72-75.44-367.952l.35-.742-.15-.808c-31.42-162.43-23.14-250.52-19.33-276.1l95.9 216.361 2.5-1.807c205.02-148.214 599.22-168.834 603.18-169.024l3.03-.14-.73-2.95c-48.61-197.26-20.72-275.05-15.03-287.95 54.78 22.55 101.7 46.9 140.46 72.84-40.65-30.04-87.6-53.91-141.69-76.05"/></g><path d="M2629.12 2751.99l-.01 7.83 5.41 1.8-5.4-9.63m-833.27 698.315h-6.25a350.47 350.47 0 0 0 12.06 8.795l-5.81-8.795" fill="#a795a5"/><path d="M1789.6 3450.305h-4.12c4.91 3.807 10 7.554 15.32 11.245l4.82 3.284-3.96-5.734a350.47 350.47 0 0 1-12.06-8.795" fill="#6b6bac"/><g class="C"><path d="M1800.81 3461.54h.05-.05zm-14.85-429.077c4.15 0 8.24-1.294 11.67-3.775 200.75-145.148 589.92-165.558 593.83-165.748 5.94-.29 11.45-3.22 15-7.99s4.79-10.88 3.37-16.65c-37.18-150.9-28.63-229.02-21.17-260.45 141.13 60.37 222.35 132.12 241.53 213.45 20.4 86.48-39.64 155.8-40.25 156.49-3.51 3.99-5.32 9.26-4.96 14.57 7.52 110.264-18.74 197.022-78.07 257.859-123.2 126.338-360.25 116.152-461.45 111.785l-6-.257c-135.47-5.749-160.33 66.084-175.15 109.009-3.13 9.06-7.86 22.754-11.09 24.788-.22.036-8.66 2.139-41.05-20.355-80.52-55.915-120.03-132.853-117.44-228.678 1.99-73.242 28.88-130.799 29.15-131.372 1.82-3.833 2.37-8.169 1.57-12.332-17.08-88.257-22.24-154.007-22.85-199.227l65.17 147.044a19.9 19.9 0 0 0 13 11.15c1.71.461 3.46.689 5.19.689zm590.69-501.073c-6.97-.01-13.66 3.67-17.3 10.04-4.39 7.69-40.2 79.01 6.34 283.28-86.85 6.48-385.74 36.97-571.23 157.89l-88.27-199.16a19.93 19.93 0 0 0-20.03-11.75c-8.52.79-15.57 6.93-17.53 15.25-.87 3.67-20.6 91.37 16.55 287.283-7.57 17.888-28.09 72.133-30.2 139.716-2.37 76.161 19.03 183.773 134.48 263.951 34.55 23.994 57.33 31.601 76.24 25.444 21.55-7.038 29.01-28.667 36.24-49.582 14.03-40.652 29.94-86.727 135.83-82.23l5.97.257c106.58 4.575 356.06 15.31 491.67-123.767 66.11-67.793 96.3-162.134 89.77-280.482 16.9-21.89 64.99-94.21 43.89-184.82-22.95-98.53-118.82-182.59-284.96-249.87-2.44-.98-4.97-1.45-7.46-1.45z"/><path d="M1798.79 2782.53c14.8 43.4 51.14 70.29 81.18 60.08 30.02-10.22 42.38-53.68 27.59-97.07-14.78-43.39-51.12-70.3-81.15-60.08-30.03 10.21-42.39 53.68-27.62 97.07z"/></g><path d="M1852.06 2782.04c5.37 15.73 18.09 25.62 28.41 22.11 10.33-3.52 14.36-19.1 9-34.84-5.35-15.72-18.07-25.61-28.41-22.1-10.32 3.52-14.35 19.11-9 34.83z" fill="#fff"/><g class="C"><path d="M1854.4 2781.24c-4.9-14.4-1.56-28.62 7.46-31.69 9.03-3.05 20.37 6.16 25.28 20.56 2.43 7.16 2.91 14.47 1.32 20.59-1.48 5.74-4.6 9.68-8.78 11.11-9.03 3.08-20.37-6.16-25.28-20.57zm10.9-37.19c-1.71 0-3.39.27-5.03.82-11.6 3.96-16.33 20.98-10.55 37.97 5.8 16.98 19.95 27.57 31.55 23.64 5.8-1.97 10.06-7.14 11.98-14.55 1.82-7.04 1.31-15.35-1.44-23.41-4.97-14.59-16.11-24.47-26.51-24.47z"/><path d="M2241.33 2695.23c-12.2-1.57-23.81-3.18-35.17-5.13-11.34-1.95-22.33-4.36-32.95-7.14-10.66-2.68-20.72-6.48-30.39-10.49-9.72-4.07-18.46-9.42-27.03-14.99l-7.66 29.06c5.88-.79 10.7-1.95 15.93-3.19 5.14-1.2 10.17-2.77 15.17-4.43 9.97-3.41 19.75-7.47 29.02-12.8 9.25-5.3 18.09-11.53 25.69-19.2 7.49-7.73 13.86-16.79 17-26.75-8.46 6.22-16.86 10.74-25.53 14.5-8.68 3.75-17.69 6.44-26.62 9.03-8.97 2.55-18.18 4.48-27.33 6.33-4.56.98-9.21 1.66-13.79 2.48-4.49.79-9.43 1.41-13.4 1.93l-1.11.15c-8.65 1.12-14.75 9.05-13.62 17.7.62 4.75 3.35 8.78 7.07 11.21 5.54 3.6 10.8 7.84 16.83 10.54 2.95 1.47 5.84 3.08 8.84 4.4l9.17 3.46c12.33 4.14 25.01 6.85 37.64 7.43a153.65 153.65 0 0 0 37.31-2.31c12.13-2.36 24.05-5.87 34.93-11.79z"/></g><path d="M1382.55 2274.86c-18.45 0-33.72 4.47-45.38 13.42-13.16 10.1-20.04 24.74-22.76 39.53l.37 2.62c18.76-16.3 38.52-22.22 57.33-22.22 26.49 0 51.1 11.74 68.36 22.78-1.85-13.79-1.13-28.54 3.41-43.85-23.1-8.18-43.67-12.28-61.33-12.28" fill="#cca09c"/><path d="M1314.41 2327.81l-.56 3.44.93-.82-.37-2.62" fill="#cab8c4"/><g class="C"><path d="M1347.67 2255.47l-31.41 25.58-10.71 35.85v22.51c2.74-2.96 5.51-5.68 8.3-8.16a79.44 79.44 0 0 1 .56-3.44c2.72-14.79 9.6-29.43 22.76-39.53 11.66-8.95 26.93-13.42 45.38-13.42 17.66 0 38.23 4.1 61.33 12.28 1.6-5.4 3.67-10.87 6.27-16.39l-17.31-12.94-85.17-2.34"/><path d="M1450.15 2270.75c-2.6 5.52-4.67 10.99-6.27 16.39-4.54 15.31-5.26 30.06-3.41 43.85 15.29 9.76 24.82 18.97 24.82 18.97l8.01-47.25-14.38-25.4-8.77-6.56"/></g><g class="D"><path d="M2517.25 1703.47c-31.41 20.92-97.03 59.73-201.97 99.21l2.89 2.81 106.1-19.95a214.8 214.8 0 0 1 39.65-3.67c30.12 0 60.09 6.22 88.25 17.83 43.72 18.03 96.85 23.36 124.47 24.94l6.47-5.48c-46.46-7.71-110.67-34.51-165.86-115.69"/></g><g class="E"><path d="M2315.28 1802.68l-11.88 4.41.9 1 13.87-2.6-2.89-2.81m367.83 16.48l-6.47 5.48 9.71.46.93-.91c.31-.3 1.23-1.21.69-2.9-.47-1.44-1.42-1.59-1.88-1.66l-2.98-.47"/></g><g class="C"><path d="M2530.17 1694.55c-3.37 2.42-7.66 5.42-12.92 8.92 55.19 81.18 119.4 107.98 165.86 115.69l2.98.47c.46.07 1.41.22 1.88 1.66.54 1.69-.38 2.6-.69 2.9l-.93.91 8.99.21-2.38-14.92 2.38-11.68-56.95-13.4c-69.44-27.5-85.55-82.5-85.55-82.5l-22.67-8.26m-226.77 112.54l-6.7 2.43 7.6-1.43-.9-1"/><path d="M2516.75 1689.67l-53.91 38.14-155.65 57.07-25.1 27.39 14.61-2.75c134.16-48.39 208.87-97.28 233.47-114.97l-13.42-4.88"/></g><g class="I"><path d="M2276.14 1138.44c-369.14.01-830.8 156.87-830.8 156.87l-11.65 21.71c-4.54 21.74-8.3 42.86-11.34 63.3 57.74-43.06 155.99-74.19 266.2-96.68 1.93-4.07 3.21-6.38 3.21-6.38 3.76-.12 7.58-.18 11.48-.18a417.6 417.6 0 0 1 17.14.36c116.47-21.67 242.92-34.37 347.51-41.8a435.88 435.88 0 0 1 30.78-1.09c203.69.01 381.71 143.96 421.95 346.51l5.11 27.82c8.1-34.63 12.14-69.5 12.13-104.51-.03-76.38-19.33-153.49-57.87-230.61-28.28-56.59-61.45-101.09-84.92-129.07-38-4.31-77.89-6.25-118.93-6.25"/></g><g class="C"><path d="M2395.07 1144.69c23.47 27.98 56.64 72.48 84.92 129.07 38.54 77.12 57.84 154.23 57.87 230.61.01 35.01-4.03 69.88-12.13 104.51 3.3 19.64 4.61 31.43 4.61 31.43 24.48-127.34 9.09-235.62-19.66-321.2-48.59-117.08-110.34-173.8-110.34-173.8l-5.27-.62m-961.38 172.33l-20.13 37.49 5.52 28.29 3.27-2.48c3.04-20.44 6.8-41.56 11.34-63.3"/></g><path d="M1703.24 1277.08c-3.9 0-7.72.06-11.48.18 0 0-1.28 2.31-3.21 6.38l31.83-6.2a417.6 417.6 0 0 0-17.14-.36" fill="#7572a7"/><g class="D"><path d="M1395.43 1309.43c-239.92 165.31-339.46 315.65-371.53 373.65l.76.72c38.1-62.2 124.49-130.28 198.02-180.96 13.62-9.39 28.76-13.68 43.59-13.68 36.79 0 71.68 26.44 76.74 67.15 13.65 109.92 59.92 208.55 81.15 249.24-6.65-16.17-13.2-34.14-19.3-53.9-17.17-55.66-32.43-132.35-32.41-229.06.01-62.72 6.46-133.88 22.98-213.16"/></g><g class="E"><path d="M1023.9 1683.08l-6.21 11.65a9.86 9.86 0 0 0-1.01 3.48c2.35-4.76 5.02-9.57 7.98-14.41l-.76-.72"/></g><g class="C"><path d="M1399.52 1290.56c-218.59 110.42-388.61 379.74-388.61 379.74l-.99 44c1.81-5.29 4.07-10.66 6.76-16.09a9.86 9.86 0 0 1 1.01-3.48c1.7-3.32 3.76-7.21 6.21-11.65 32.07-58 131.61-208.34 371.53-373.65l4.09-18.87"/><path d="M1416.25 1282.47c-5.61 2.59-11.18 5.29-16.73 8.09l-4.09 18.87c-16.52 79.28-22.97 150.44-22.98 213.16-.02 96.71 15.24 173.4 32.41 229.06 6.1 19.76 12.65 37.73 19.3 53.9 6.62 12.7 10.81 19.76 10.81 19.76l10.68-18.99c-117.19-211.49-29.4-523.85-29.4-523.85"/><path d="M2988.84 941.29c-56.5 6.74-113.62 21.25-164.78 50.57-25.43 14.63-49.5 32.46-69.84 54.32-10.41 10.67-19.43 22.69-27.91 35-8.32 12.45-15.39 25.73-21.54 39.4-5.96 13.78-10.63 28.08-14.19 42.64-3.51 14.58-5.54 29.48-6.49 44.42-1.62 29.89 1.85 60.05 10.58 88.62 8.45 28.64 21.83 55.87 39.5 80.08 8.93 12.03 18.75 23.44 29.63 33.81 10.96 10.28 22.72 19.71 35.2 28.12 12.62 8.21 25.86 15.45 39.65 21.49 13.88 5.77 28.11 10.81 42.73 14.22 14.58 3.47 29.42 5.9 44.3 6.88 14.89 1.32 29.77 1 44.56.16 29.53-2.24 58.46-8.35 86.12-17.43 27.74-8.89 54.11-20.97 79.34-34.58 12.74-6.5 24.8-14.73 37.05-22.32 6-4 11.7-8.42 17.52-12.65l8.67-6.4 8.29-6.86 16.32-13.97 15.54-14.73c5.29-4.78 9.97-10.17 14.96-15.23 4.98-5.07 9.72-10.36 14.26-15.82 4.54-5.44 9.29-10.7 13.64-16.28l13.05-16.7 12.21-17.28c4.02-5.78 7.77-11.74 11.66-17.59 14.87-23.84 28.53-48.45 38.8-74.47v.01l-78.24 21.57 15.61 20.72h.01l114.46-152.76h-.01l-181.48-60.85-.35 38.12h.01l74.47-35.26v-.01h-.01c-22.97-13.76-47.56-24.8-72.62-34.6-25.16-9.55-51.05-17.47-77.49-23.48-26.37-6.44-53.44-10.05-80.72-12.21l-20.53-1.15-20.62.13-10.32.1-10.32.74-20.68 1.51m4.64 34.24l19.02-2.47 9.53-1.25 9.61-.62 19.25-1.24 19.36-.16c3.23-.03 6.46-.17 9.7-.11l9.71.37c6.47.3 12.97.34 19.45.86 12.94 1.16 25.96 2.03 38.91 3.79 25.92 3.33 51.86 7.78 77.56 13.82a768.39 768.39 0 0 1 76.56 21.73l.01.01v-.01l-82.34-2.93-.01.01-3.79 1.19c-10 3.15-15.54 13.81-12.39 23.8 2.31 7.33 8.67 12.26 15.83 13.13l190.05 22.8h.01l-134.55 135.4v.01l-2.26 3.7c-3.63 5.95-1.76 13.72 4.19 17.35 4.36 2.67 9.71 2.36 13.68-.33l67.1-45.66v-.01c-16.3 22.64-33.44 44.28-51.71 64.83-18.06 20.67-37.09 40.33-57.1 58.67-20.14 18.17-40.54 35.92-62.77 50.91l-8.13 5.87-8.45 5.37-16.87 10.68c-11.68 6.39-22.96 13.17-35.11 18.91-47.88 23.62-98.84 40.21-150.39 44.37-25.72 1.68-51.51.5-76.33-5.05-12.45-2.6-24.5-6.61-36.32-11.17-11.71-4.83-22.96-10.68-33.75-17.32-42.87-27.04-75.28-70.37-89.98-119.31-14.65-48.93-11.86-102.98 9.21-149.35 20.75-46.66 58.67-84.33 103.59-110.39 22.49-13.14 46.79-23.61 72.02-31.74 25.22-8.17 51.33-14.29 77.9-18.46"/></g><g class="D"><path d="M3078.27 969.67l-8.02.12-19.36.16-19.25 1.24-9.61.62-9.53 1.25-19.02 2.47c-26.57 4.17-52.68 10.29-77.9 18.46-25.23 8.13-49.53 18.6-72.02 31.74-44.92 26.06-82.84 63.73-103.59 110.39-21.07 46.37-23.86 100.42-9.21 149.35 2.69 8.96 5.98 17.74 9.81 26.26 7.57 11.79 16.22 22.96 25.87 33.32l-1.03-6.09c-22.38-25.28-35.82-57.37-38.12-91.49-5.07-75.34 46.72-159.07 173.88-176.29 10.7-1.45 21.82-2.23 33.08-2.32 33.54-13.93 72.41-24.42 116.91-30.45 20.78-2.81 41.36-4.04 61.47-4.04 36.03 0 70.5 3.94 101.72 9.72-4.95-2.09-8.99-6.25-10.73-11.77-3.15-9.99 2.39-20.65 12.39-23.8l3.79-1.19.01-.01 8.21.29v-.21l.71.24 73.41 2.61c-.13-.05-.26-.09-.4-.14l-83.01-18.69 10.27-2.11-3.42-.79c-25.7-6.04-51.64-10.49-77.56-13.82-12.95-1.76-25.97-2.63-38.91-3.79-6.48-.52-12.98-.56-19.45-.86l-9.71-.37-1.68-.01"/></g><g class="E"><path d="M3229 989.31l-10.27 2.11 83.01 18.69c-24.04-8.16-48.28-15.1-72.74-20.8"/><path d="M2740.57 1311.73c7.57 16.8 17.26 32.61 28.76 46.94-1.1-4.51-2.06-9.05-2.89-13.62-9.65-10.36-18.3-21.53-25.87-33.32"/></g><path d="M2852.04 1117.55c-78.91 30.12-102.72 96.78-87.18 152.14 7.78-55.31 35.67-109.52 87.18-152.14" fill="#aa902d"/><path d="M2934.25 1068.86c-11.26.09-22.38.87-33.08 2.32-127.16 17.22-178.95 100.95-173.88 176.29 2.3 34.12 15.74 66.21 38.12 91.49-3.54-22.76-3.81-46.11-.55-69.27-15.54-55.36 8.27-122.02 87.18-152.14 22.71-18.79 50.02-35.33 82.21-48.69" fill="#af592f"/><g class="D"><path d="M3224.5 1046.06c81.04 16.38 137.65 44.19 137.65 44.19l-78.42 16.17 71.79 16.17 53.99-54.34h-.01l-185-22.19"/></g><path d="M3409.5 1068.25h.01" fill="#b1b1d3"/><g class="C"><path d="M3052.63 954.37c-20.1 0-40.7 1.23-61.47 4.04-322.39 43.65-348.44 321.55-206.58 444.11a239.96 239.96 0 0 1-15.25-43.85c-11.5-14.33-21.19-30.14-28.76-46.94-3.83-8.52-7.12-17.3-9.81-26.26-14.65-48.93-11.86-102.98 9.21-149.35 20.75-46.66 58.67-84.33 103.59-110.39 22.49-13.14 46.79-23.61 72.02-31.74 25.22-8.17 51.33-14.29 77.9-18.46l19.02-2.47 9.53-1.25 9.61-.62 19.25-1.24 19.36-.16 8.02-.12 1.68.01 9.71.37c6.47.3 12.97.34 19.45.86 12.94 1.16 25.96 2.03 38.91 3.79 25.92 3.33 51.86 7.78 77.56 13.82l3.42.79c24.46 5.7 48.7 12.64 72.74 20.8.14.05.27.09.4.14-1.65-.81-114.71-55.88-249.51-55.88m167.18 52.95l-.01.01-3.79 1.19c-10 3.15-15.54 13.81-12.39 23.8 1.74 5.52 5.78 9.68 10.73 11.77l10.15 1.97 185 22.19-185.77-41.83 78.42-16.17-73.42-2.61-.71-.24v.21l-8.21-.29m189.69 60.93h.01l-53.99 54.34 5.89 1.32 48.1-55.66"/></g></g></svg>