<svg xmlns="http://www.w3.org/2000/svg" width="670" height="118"><path d="M101.4 117.3H16.8c-8.9 0-16.1-7.2-16.1-16.1V16.6C.7 7.8 7.9.6 16.8.6h84.6c8.8 0 16 7.2 16 16v84.6c0 8.9-7.2 16.1-16 16.1z"/><g fill="#fff"><path d="M71.3 30.7c-5.5-5.2-12.4-7.9-19.4-8.3q-.8 0-1.5 0-.2 0-.3 0c-7.8.1-15.5 3.1-21.5 9-4.1 4.1-6.8 9.1-8.1 14.4q-.8 3.4-.8 6.9v.8c0 7.4 2.8 14.9 8.4 20.7V55.4q-.3-2.3 0-4.6c.5-5 2.6-9.8 6.4-13.5 4.4-4.4 10.1-6.6 15.8-6.6h21.1zm27.2 64.7H86.9L53.3 61.8 47.4 56l5.9-5.8 5.8 5.8z"/><path d="M77.9 37.2L19.7 95.4V83.8l46.4-46.5z"/><path d="M28.1 55.9V87h-8.4V55.9zm64.4-33.5l-8.1 8.3H50v-8.3zm-5.2 73H29.5l9.6-8.4h48.2z"/><g fill="#000"><path fill-rule="evenodd" d="M167.8 96.2c-.6-1.9-1-3.1-1-9.2V75.3c0-6.9-2.4-9.5-7.7-9.5h-4v30.4h-11.7V21.7H161c12.2 0 17.4 5.6 17.4 17.1v5.9c0 7.6-2.5 12.6-7.7 15.1 5.9 2.4 7.8 8.1 7.8 15.8v11.5c0 3.6.1 6.3 1.3 9.1zM155 32.3v22.9h4.6c4.3 0 7-1.9 7-7.9V40c0-5.3-1.8-7.7-6-7.7z"/><path d="M196 71.5l-14.7-49.8h12.2l8.9 33.9 9-33.9h11.1l-14.7 49.8v24.7H196zm63.7-49.8v10.4l-22.3 53.4h22.3v10.7h-34.3V85.7l22.3-53.4h-21.2V21.7z"/><path fill-rule="evenodd" d="M265.6 39.6c0-12 6.3-18.8 17.8-18.8s17.8 6.8 17.8 18.8v38.7c0 11.9-6.3 18.7-17.8 18.7s-17.8-6.8-17.8-18.7zm11.7 39.5c0 5.3 2.4 7.3 6.1 7.3s6.1-2 6.1-7.3V38.8c0-5.3-2.4-7.3-6.1-7.3s-6.1 2-6.1 7.3z"/><path d="M320.4 53.1h16.1v10.6h-16.1v21.8h20.3v10.7h-32V21.7h32v10.6h-20.3zm58.9-13.4v1.6h-4.7v-2c0-7.8-3-13.8-11.1-13.8-8 0-11 5.9-11 13.7 0 18.1 26.9 18.4 26.9 39 0 10.7-4.7 18.6-16.1 18.6s-16-7.9-16-18.6v-3.8h4.6v4.1c0 8 3.1 13.7 11.3 13.7s11.3-5.7 11.3-13.7c0-17.9-26.9-18.2-26.9-38.9 0-11.2 4.9-18.5 15.8-18.6 11.3 0 15.9 7.9 15.9 18.7z"/><path fill-rule="evenodd" d="M387 39.9C387 29 392 21 403.2 21c11.5 0 16.5 8 16.5 18.9V78c0 10.8-5 18.8-16.5 18.8-11.2 0-16.2-8-16.2-18.8zm4.9 38.4c0 8.1 3.1 14 11.3 14 8.3 0 11.6-5.9 11.6-14V39.5c0-8-3.3-14-11.6-14-8.2 0-11.3 6-11.3 14z"/><path d="M427.8 96.2V21.7h4.9v70h23.4v4.5zm40.4-18c0 8 2.9 14.1 11.1 14.1s11.2-6.1 11.2-14.1V21.7h4.6V78c0 10.6-4.5 18.8-15.9 18.8s-15.9-8.2-15.9-18.8V21.7h4.9zm47.8 18V26.1h-15.1v-4.4h35.3v4.4h-15.3v70.1zm31.1-74.5v74.5h-4.9V21.7z"/><path fill-rule="evenodd" d="M555.3 39.9c0-10.9 5-18.9 16.3-18.9 11.5 0 16.5 8 16.5 18.9V78c0 10.8-5 18.8-16.5 18.8-11.3 0-16.3-8-16.3-18.8zm4.9 38.4c0 8.1 3.2 14 11.4 14 8.3 0 11.6-5.9 11.6-14V39.5c0-8-3.3-14-11.6-14-8.2 0-11.4 6-11.4 14z"/><path d="M600.6 96.2h-4.4V21.7h6.4l22.3 62.9V21.7h4.5v74.5h-5.5l-23.3-66.4zm68.6-56.5v1.6h-4.7v-2c0-7.8-3-13.8-11.1-13.8s-11 5.9-11 13.7c0 18.1 26.9 18.4 26.9 39 0 10.7-4.7 18.6-16.1 18.6s-16.1-7.9-16.1-18.6v-3.8h4.7v4.1c0 8 3.1 13.7 11.3 13.7s11.3-5.7 11.3-13.7c0-17.9-26.9-18.2-26.9-38.9 0-11.2 4.9-18.5 15.8-18.6 11.3 0 15.9 7.9 15.9 18.7z"/></g></g></svg>