<svg xmlns="http://www.w3.org/2000/svg" viewBox="0 0 416.16 35.39"><path d="M12.91 34.89a17.52 17.52 0 0 1-6.84-1.33 21.16 21.16 0 0 1-6.07-4l2.12-2.52a20.17 20.17 0 0 0 5.33 3.78 13.34 13.34 0 0 0 5.56 1.13 10.74 10.74 0 0 0 4.34-.84 7.24 7.24 0 0 0 3-2.27 5.33 5.33 0 0 0 1.08-3.29 4.33 4.33 0 0 0-1.58-3.62 12.73 12.73 0 0 0-5.44-1.91l-5.09-.88a12.31 12.31 0 0 1-6.33-2.64 6.53 6.53 0 0 1-2-5 8.31 8.31 0 0 1 1.37-4.7 9.55 9.55 0 0 1 3.8-3.22 13 13 0 0 1 5.63-1.17 21.48 21.48 0 0 1 6.53 1 22.32 22.32 0 0 1 5.94 3l-1.81 2.73a18.84 18.84 0 0 0-5.13-2.81 16 16 0 0 0-5.48-1 9.39 9.39 0 0 0-3.9.81 6.68 6.68 0 0 0-2.65 2 4.88 4.88 0 0 0-1 3 3.94 3.94 0 0 0 1.45 3.22 9.26 9.26 0 0 0 4.54 1.67l5 .86c3.36.6 5.8 1.56 7.31 2.9a7 7 0 0 1 2.28 5.56 8.15 8.15 0 0 1-1.56 4.9 10.48 10.48 0 0 1-4.25 3.4 14.74 14.74 0 0 1-6.15 1.24zm22.32-.5V2.89h3.51v31.5zm15.93 0V2.89h3.58l18.45 26.1-.09-26.1h3.29v31.5h-3.13L54.36 7.71l.09 26.68zm52.2.5a15.58 15.58 0 0 1-6.25-1.26 16.08 16.08 0 0 1-8.46-8.67 17 17 0 0 1 0-12.64 16 16 0 0 1 3.4-5.18 16.18 16.18 0 0 1 5.06-3.49 15.58 15.58 0 0 1 6.25-1.26 18 18 0 0 1 6.82 1.31 14.3 14.3 0 0 1 5.47 3.87l-2.34 2.34a11.42 11.42 0 0 0-4.41-3.24 14.07 14.07 0 0 0-5.54-1.12 11.71 11.71 0 0 0-4.9 1 12.29 12.29 0 0 0-3.94 2.79 12.87 12.87 0 0 0-2.63 4.16 14.33 14.33 0 0 0 0 10.26 12.87 12.87 0 0 0 2.63 4.16 12.29 12.29 0 0 0 3.94 2.79 11.71 11.71 0 0 0 4.9 1 11.37 11.37 0 0 0 5.65-1.39 11.07 11.07 0 0 0 4-3.85 12 12 0 0 0 1.82-5.51h-10.57v-3.04h14.13v1.39a16.22 16.22 0 0 1-1.12 6.1 15.26 15.26 0 0 1-3.17 4.95 14.72 14.72 0 0 1-10.74 4.53zm25.97-.5V2.89h3.46v14.08h18.09V2.89h3.47v31.5h-3.47V20.08h-18.09v14.31zm33.88 0l12.47-31.5h4.14l12.28 31.5h-3.73l-3.74-9.9h-14l-3.73 9.9zm8.46-12.64h11.93l-6-15.71zm88.83 13.14a15.9 15.9 0 0 1-14.76-9.88 16.58 16.58 0 0 1-1.22-6.37 16.58 16.58 0 0 1 1.22-6.37 15.82 15.82 0 0 1 14.8-9.88 16.18 16.18 0 0 1 8.51 2.37 14.61 14.61 0 0 1 3.37 2.81l-2.29 2.39a12 12 0 0 0-4.3-3.27 12.82 12.82 0 0 0-5.29-1.14 12.53 12.53 0 0 0-4.95 1 12 12 0 0 0-4 2.79 13.07 13.07 0 0 0-2.63 4.17 13.72 13.72 0 0 0-.95 5.15 13.8 13.8 0 0 0 .95 5.13 13 13 0 0 0 2.63 4.19 11.75 11.75 0 0 0 4 2.79 12.76 12.76 0 0 0 10.24-.19 12.11 12.11 0 0 0 4.3-3.24l2.29 2.39a14.61 14.61 0 0 1-3.37 2.81 16.18 16.18 0 0 1-8.51 2.37zm22.64-.5V2.89h3.46v28.44h17.78v3.06zm43.6.5a15.21 15.21 0 0 1-6.12-1.24 15.42 15.42 0 0 1-5-3.47 16.43 16.43 0 0 1-4.58-11.54 16.43 16.43 0 0 1 4.56-11.5 15.42 15.42 0 0 1 5-3.47 15.72 15.72 0 0 1 12.24 0 15.37 15.37 0 0 1 5 3.47 16.5 16.5 0 0 1 4.57 11.54 16.5 16.5 0 0 1-4.62 11.46 15.37 15.37 0 0 1-5 3.47 15.21 15.21 0 0 1-6.05 1.28zm0-3.16a11.5 11.5 0 0 0 4.77-1 11.82 11.82 0 0 0 3.87-2.79 12.92 12.92 0 0 0 2.58-4.19 14 14 0 0 0 .93-5.13 13.91 13.91 0 0 0-.93-5.15 12.94 12.94 0 0 0-2.58-4.17 12.12 12.12 0 0 0-3.87-2.79 12.1 12.1 0 0 0-9.54 0 12.12 12.12 0 0 0-3.87 2.79 13 13 0 0 0-2.59 4.17 13.81 13.81 0 0 0-.92 5.11 14.09 14.09 0 0 0 .92 5.17 13 13 0 0 0 2.59 4.19 11.82 11.82 0 0 0 3.87 2.79 11.5 11.5 0 0 0 4.77 1zm38.7 3.16a13.06 13.06 0 0 1-6.7-1.69 11.2 11.2 0 0 1-4.38-4.8 16.37 16.37 0 0 1-1.53-7.33V2.89h3.46v18.18a13 13 0 0 0 1.13 5.62 8.69 8.69 0 0 0 3.19 3.72 9.61 9.61 0 0 0 9.72 0 8.71 8.71 0 0 0 3.2-3.72 13.2 13.2 0 0 0 1.12-5.62V2.89h3.47v18.18a16.37 16.37 0 0 1-1.54 7.33 11.16 11.16 0 0 1-4.36 4.8 13 13 0 0 1-6.78 1.69zm24.53-.5V2.89h10.44a16.63 16.63 0 0 1 6.33 1.19 14.9 14.9 0 0 1 5 3.33 15.29 15.29 0 0 1 3.24 5 16.64 16.64 0 0 1 1.15 6.23 16.64 16.64 0 0 1-1.15 6.23 15.29 15.29 0 0 1-3.24 5 14.9 14.9 0 0 1-5 3.33 16.63 16.63 0 0 1-6.36 1.19zm3.46-3.11h7.2a11.42 11.42 0 0 0 6.11-1.66 12.29 12.29 0 0 0 4.3-4.52 13.08 13.08 0 0 0 1.59-6.46 13.08 13.08 0 0 0-1.58-6.5 12.29 12.29 0 0 0-4.3-4.52 11.42 11.42 0 0 0-6.12-1.66h-7.2z"/><path fill="#ed1c24" d="M218.65 28.78l8.67 4.06v2.55l-10.38-3.63-10.37 3.63v-2.55l8.67-4.06v-3.37l-8.52-3.89 1.74-9.86-10.41-4.04L201.69 0v6.53l8.47 1.19v12.66l6.78 1.14 6.79-1.14V7.72l8.47-1.19V0l3.64 7.62-10.42 4.04 1.75 9.86-8.52 3.89v3.37z"/></svg>